<svg width="758" height="703" viewBox="0 0 758 703" fill="none" xmlns="http://www.w3.org/2000/svg">
<path d="M430.335 364.944C434.366 367.775 433.896 365.784 430.753 363.163L430.544 364.053L430.335 364.944Z" fill="#FBBC04"/>
<path d="M430.125 365.847C429.786 365.297 429.786 365.297 429.786 365.297C429.233 365.637 431.827 368.598 430.125 365.847Z" fill="#FBBC04"/>
<path d="M429.238 365.652C429.238 365.652 429.238 365.652 429.577 366.202C433.189 370.813 438.397 370.633 428.006 364.892C428.555 364.552 428.898 365.102 429.238 365.652Z" fill="#FBBC04"/>
<path d="M345.059 423.811C354.112 437.227 346.369 422.239 345.059 423.811Z" fill="#FBBC04"/>
<path d="M327.35 443.107C327.35 443.107 326.8 443.447 327.14 443.996C327.611 445.986 329.731 446.958 329.731 446.958C330.281 446.618 327.9 442.767 327.35 443.107Z" fill="#FBBC04"/>
<path d="M396.675 394.147C395.996 393.047 395.108 392.837 394.426 391.736C395.108 392.837 396.336 393.597 396.675 394.147Z" fill="#FBBC04"/>
<path d="M399.316 343.085C395.964 341.355 397.536 342.665 399.786 345.076C401.357 346.386 398.898 344.866 398.005 344.656C398.345 345.206 410.437 353.698 406.746 351.417C402.506 349.477 398.136 346.097 393.215 343.056C389.524 340.775 384.053 338.075 388.084 340.906C392.115 343.736 393.895 344.156 398.815 347.197C398.606 348.087 390.885 342.976 391.225 343.527C391.015 344.417 393.475 345.937 396.486 347.117C396.276 348.008 389.445 343.107 388.895 343.447C388.345 343.787 389.235 343.997 387.114 343.027C383.764 341.297 388.135 344.678 391.276 347.298C395.305 350.129 395.649 350.679 395.988 351.229C392.846 348.609 389.495 346.879 386.355 344.258C381.984 340.877 387.375 345.909 388.605 346.669C389.285 347.769 388.395 347.559 388.185 348.45L391.116 351.961C390.226 351.751 373.552 340.769 384.545 349.941C387.686 352.562 385.226 351.041 384.336 350.831C380.985 349.101 382.555 350.412 383.916 352.612C386.297 356.464 383.366 352.953 379.465 351.563C375.224 349.623 384.647 357.485 389.018 360.865C387.448 359.555 386.558 359.345 382.867 357.065C381.296 355.754 380.066 354.994 379.176 354.784C376.166 353.604 376.976 356.145 375.536 356.276C374.096 356.406 371.425 355.777 372.446 357.427C373.126 358.527 379.408 363.769 381.868 365.289C379.958 363.428 380.088 364.869 378.178 363.008C376.947 362.249 375.377 360.938 374.147 360.178C372.576 358.868 373.597 360.518 373.047 360.858C373.257 359.968 374.408 363.059 374.408 363.059C374.198 363.95 371.737 362.429 371.867 363.87C371.997 365.311 379.509 371.312 376.499 370.132C373.488 368.952 365.767 363.841 367.467 366.592C368.148 367.693 375.58 376.025 367.937 368.583C368.618 369.684 369.848 370.444 370.869 372.094C359.195 361.822 362.047 367.664 361.077 369.785C360.527 370.126 358.668 372.037 362.148 375.207C362.488 375.758 360.918 374.448 360.368 374.788C359.478 374.578 359.268 375.468 359.058 376.359C358.298 377.59 356.178 376.619 355.418 377.85C355.418 377.85 354.319 378.531 356.909 381.492C358.82 383.352 359.841 385.003 360.18 385.553C359.631 385.893 358.74 385.683 356.49 383.272C355.6 383.062 356.62 384.713 354.839 384.293C354.499 383.743 349.448 379.262 353.06 383.874C355.31 386.284 357.011 389.035 356.461 389.375C355.441 387.725 351.279 383.453 350.939 382.903C349.028 381.043 352.9 388.536 353.24 389.086C353.371 390.526 351.46 388.666 350.57 388.456C349.68 388.246 345.649 385.416 349.261 390.027C351.852 392.988 353.212 395.189 355.802 398.151C353.892 396.291 349.731 392.018 348.161 390.708C345.02 388.087 354.362 398.281 355.383 399.932C354.623 401.16 346.04 389.738 344.13 387.877C340.989 385.256 344.39 390.758 344.73 391.308C344.18 391.649 341.17 390.469 343.761 393.43L346.011 395.84C346.351 396.389 346.142 397.282 347.502 399.482C347.842 400.031 352.134 405.746 352.134 405.746C351.584 406.085 341.43 393.35 339.86 392.04C337.399 390.52 338.55 393.611 337.79 394.842C337.03 396.073 332.45 393.582 338.102 401.496C334.15 396.334 334.881 401.204 333.991 400.994C333.991 400.994 330.51 397.823 331.871 400.027C333.361 403.668 337.052 405.947 338.413 408.147C342.835 415.299 329.881 400.497 330.561 401.595C330.561 401.595 333.282 405.998 335.663 409.849C338.044 413.7 340.425 417.551 340.085 417.002C338.174 415.141 326.269 395.884 328.911 402.618C330.402 406.259 327.261 403.637 330.112 409.482C330.583 411.472 331.864 416.002 330.294 414.691C327.232 409.742 322.521 405.809 326.603 412.412C317.759 398.107 319.431 406.962 327.254 419.616C325.213 416.314 322.282 412.803 320.582 410.051C317.651 406.539 317.781 407.981 317.571 408.874C317.021 409.213 314.011 408.032 317.412 413.534C315.162 411.125 314.271 410.915 314.062 411.804C313.302 413.036 314.662 415.236 318.194 422.179C317.644 422.519 313.092 413.925 311.521 412.614C313.222 415.366 314.373 418.459 313.823 418.799C308.25 408.554 308.851 411.986 307.751 412.665C307.201 413.005 312.694 425.58 314.185 429.221C315.676 432.863 318.737 437.815 319.888 440.908C321.039 444 318.998 440.698 317.977 439.047C315.466 433.755 312.955 428.463 310.783 423.72C311.124 424.272 306.781 414.786 306.572 415.678C306.912 416.227 307.042 417.669 306.152 417.46C305.472 416.358 304.791 415.256 304.791 415.256C304.791 415.256 303.901 415.047 304.712 417.59C305.392 418.688 314.836 436.425 314.496 435.876C312.586 434.016 304.972 420.469 309.785 431.946C312.376 434.904 315.017 441.638 317.398 445.489C319.44 448.791 315.386 436.085 317.558 440.829C319.258 443.577 320.749 447.219 322.79 450.52C325.171 454.371 323.55 449.292 324.1 448.949C324.86 447.72 319.967 438.577 317.796 433.834C316.646 430.742 314.265 426.891 314.134 425.449C313.794 424.9 314.554 423.672 315.914 425.872C317.275 428.072 317.876 431.504 318.346 433.494C319.837 437.136 321.198 439.336 323.029 443.526C319.837 437.136 321.747 438.996 320.807 435.015C321.017 434.122 322.377 436.326 323.738 438.526C325.308 439.837 325.178 438.396 325.728 438.056C326.278 437.712 327.429 440.805 328.789 443.005C330.83 446.306 331.59 445.078 332.48 445.287C332.82 445.836 337.401 448.329 334.68 443.925C330.598 437.321 329.788 434.782 331.568 435.201C332.798 435.963 337.56 443.664 335.048 438.372C332.197 432.531 338.87 442.092 337.039 437.902C336.359 436.8 333.637 432.4 331.806 428.21C330.446 426.006 329.425 424.359 328.405 422.708C327.385 421.058 327.044 420.505 327.044 420.505C327.934 420.714 333.037 428.968 334.737 431.721C336.778 435.023 337.538 433.791 340.259 438.19C339.709 438.534 341.96 440.943 341.96 440.943C342.51 440.603 340.6 438.743 340.809 437.851C338.769 434.549 339.868 433.87 339.868 433.87C339.528 433.321 333.666 426.299 335.446 426.717C337.566 427.689 343.139 437.93 345.05 439.79C348.191 442.412 344.999 436.018 342.278 431.618C339.557 427.215 340.237 428.317 340.787 427.977C340.447 427.428 343.248 429.498 341.887 427.298C339.506 423.443 337.255 421.034 340.396 423.656C344.557 427.926 342.908 428.949 346.649 434.999C346.729 432.669 350.81 439.269 348.639 434.529C347.489 431.437 351.179 433.716 346.208 426.907C348.248 430.205 349.478 430.967 348.328 427.874C346.627 425.126 344.586 421.824 342.546 418.522C338.804 412.472 345.686 421.141 347.047 423.344C348.748 426.093 355.29 434.217 354.82 432.227C354.689 430.785 352.178 425.493 357.49 432.855C354.428 427.906 344.144 413.727 349.196 418.21C351.996 420.28 359.48 432.385 357.859 427.302C357.518 426.753 353.987 419.81 354.667 420.911C356.237 422.223 358.959 426.622 360.529 427.934C362.099 429.245 359.719 425.39 360.269 425.051C360.478 424.162 356.317 419.889 355.846 417.898C354.146 415.149 356.266 416.117 353.885 412.266C353.205 411.168 349.123 404.565 353.075 409.727C356.215 412.345 357.786 413.656 357.996 412.768C358.205 411.875 356.505 409.126 356.375 407.685C355.904 405.694 365.297 419.66 368.098 421.729C370.559 423.25 364.017 415.126 363.336 414.028C362.316 412.377 360.616 409.624 362.866 412.033C362.186 410.935 355.094 403.151 355.644 402.811C356.533 403.021 367.027 416.306 369.958 419.817C370.168 418.925 364.646 412.456 364.856 411.563C371.398 419.687 367.526 412.195 369.437 414.055C371.007 415.366 373.388 419.217 373.938 418.878C374.488 418.534 373.808 417.436 373.468 416.887C372.998 414.893 374.908 416.753 375.458 416.413L376.977 413.953C375.067 412.092 370.906 407.823 369.545 405.619C367.845 402.87 373.916 409 375.487 410.311C378.418 413.822 381.428 415.003 380.068 412.803C378.707 410.6 375.016 408.321 373.446 407.009C371.535 405.149 370.804 400.28 374.756 405.438C383.418 414.533 369.314 396.638 369.314 396.638C371.224 398.498 376.406 404.419 376.956 404.079C376.956 404.079 376.224 399.205 378.946 403.609C379.836 403.818 376.775 398.866 379.915 401.488C381.486 402.795 386.197 406.729 384.286 404.869C381.355 401.358 374.183 395.904 373.293 395.694L370.023 391.634C370.232 390.743 374.394 395.015 375.964 396.326C379.105 398.945 382.246 401.567 384.837 404.525C383.816 402.874 381.905 401.014 380.885 399.367C375.363 392.893 379.524 397.164 382.665 399.786C391.067 405.998 379.894 391.612 388.766 399.814C389.996 400.576 381.674 392.032 385.365 394.312C385.705 394.862 395.467 403.273 392.196 399.213C390.285 397.353 384.894 392.321 385.444 391.981C385.444 391.981 390.025 394.471 390.365 395.023C390.365 395.023 386.334 392.191 389.815 395.363C392.616 397.432 394.396 397.851 394.056 397.302C394.056 397.302 395.155 396.622 392.905 394.211C389.764 391.59 385.053 387.659 384.843 388.549C383.273 387.239 380.132 384.618 379.452 383.518C378.091 381.317 381.572 384.488 382.802 385.248C386.493 387.528 390.864 390.909 395.574 394.84C393.665 392.979 391.414 390.569 391.414 390.569C391.414 390.569 395.787 393.95 397.015 394.71C399.818 396.78 397.437 392.929 397.307 391.488C395.945 389.288 394.922 387.637 391.993 384.126C390.763 383.365 386.262 378.544 388.722 380.064C389.612 380.274 392.203 383.235 395.005 385.306C396.572 386.616 397.255 387.716 398.483 388.477C399.715 389.237 400.054 389.787 400.054 389.787C399.375 388.686 393.643 383.105 393.643 383.105C393.643 383.105 398.353 387.036 399.245 387.246C400.133 387.455 401.235 386.775 398.092 384.154C397.413 383.054 396.813 379.623 394.012 377.553C392.861 374.461 397.362 379.282 401.942 381.773C405.293 383.503 397.101 376.401 397.232 377.842C397.441 376.951 393.15 371.239 387.549 367.098C391.58 369.929 393.831 372.34 398.203 375.72C400.662 377.241 402.234 378.551 404.693 380.071C398.412 374.83 398.282 373.389 399.383 372.709C400.481 372.029 405.743 375.619 409.435 377.899C405.404 375.069 408.152 373.367 407.473 372.267C406.794 371.167 401.191 367.026 402.289 366.345C402.842 366.005 420.485 374.866 409.281 366.584C409.829 366.244 417.761 370.464 414.622 367.844C410.252 364.463 408.341 362.602 405.199 359.982C409.569 363.362 413.6 366.193 417.421 369.914L405.068 358.541C406.3 359.301 416.272 366.823 416.272 366.823C414.91 364.622 405.278 357.651 400.358 354.61C400.568 353.72 411.428 361.451 414.231 363.522C419.49 367.112 414.441 362.631 416.9 364.151C418.132 364.911 421.823 367.192 420.252 365.882C419.573 364.781 415.542 361.951 417.323 362.371C418.211 362.58 418.76 362.24 420.201 362.11C421.093 362.32 430.122 365.859 427.662 364.339C427.323 363.789 419.94 359.228 419.601 358.678C413.11 354.328 411.539 353.017 414.208 353.647C415.1 353.857 411.069 351.026 409.837 350.266C408.689 347.175 402.324 344.265 399.316 343.085Z" fill="#FBBC04"/>
<path d="M309.31 445.951C308.08 445.192 307.19 444.979 309.911 449.383C312.292 453.233 313.052 452.001 313.262 451.112L310.2 446.16C309.31 445.951 309.31 445.951 309.31 445.951Z" fill="#FBBC04"/>
<path d="M299.714 416.887C296.993 412.484 300.314 420.319 297.933 416.469C295.342 413.507 298.794 422.78 297.825 424.901C294.973 419.06 294.633 418.511 294.554 420.841C295.024 422.831 296.305 427.361 297.796 431.003C296.044 424.482 287.671 412.168 294.055 424.952C296.776 429.352 294.995 428.933 292.954 425.631C290.233 421.232 289.293 417.251 288.533 418.479C285.602 414.968 293.476 431.394 294.496 433.045C296.197 435.797 301.871 453.586 303.992 454.553C305.222 455.315 302.58 448.582 304.621 451.883C305.641 453.534 309.383 459.585 307.892 455.943C306.741 452.851 303.68 447.902 302.529 444.81C302.059 442.819 301.378 441.718 300.908 439.727C302.739 443.921 306.271 450.86 304.65 445.781C303.839 443.238 300.387 433.965 299.027 431.765L306.35 448.53C306.9 448.191 303.369 441.248 303.238 439.806C303.318 437.476 305.018 440.229 305.909 440.438C306.799 440.647 306.878 438.317 309.809 441.828C310.49 442.926 313.211 447.33 313.761 446.99C313.761 446.99 309.549 438.945 308.869 437.847C309.419 437.503 312.27 443.349 314.651 447.199C313.16 443.558 312.35 441.015 312.219 439.577C311.749 437.586 311.958 436.694 308.897 431.741C306.046 425.9 302.645 420.398 299.714 416.887Z" fill="#FBBC04"/>
<path d="M289.424 418.688C289.974 418.348 287.513 416.828 289.424 418.688Z" fill="#FBBC04"/>
<path d="M289.262 423.356C285.861 417.855 291.825 432.416 293.525 435.169C292.845 434.067 285.52 417.302 286.121 420.734C287.272 423.826 289.783 429.118 289.364 430.9C289.154 431.788 288.944 432.681 287.714 431.919C287.374 431.37 286.563 428.826 285.543 427.175C283.031 421.883 282.612 423.664 284.783 428.408C282.952 424.217 286.324 435.821 284.493 431.63C283.133 429.427 282.062 424.008 281.592 422.013C280.491 422.697 283.944 431.97 285.905 437.602C283.734 432.859 282.243 429.217 280.281 423.585C281.562 428.119 285.746 442.262 285.196 442.606C283.575 437.523 279.102 426.599 279.153 430.37C279.073 432.701 283.705 438.964 284.096 443.285C284.277 448.498 279.283 431.812 279.073 432.701C278.863 433.593 280.955 440.663 279.124 436.472L277.293 432.282C277.763 434.273 278.574 436.812 279.385 439.355C277.293 432.282 275.932 430.082 273.891 426.78C272.871 425.13 274.022 428.222 274.832 430.761C273.342 427.12 271.981 424.92 271.641 424.367C271.091 424.707 272.032 428.692 272.502 430.682C272.973 432.673 272.893 435.003 272.343 435.343C271.793 435.682 269.702 428.609 269.571 427.171C269.702 428.609 269.962 431.492 270.773 434.032C270.903 435.473 271.243 436.026 271.584 436.575C274.486 446.188 276.316 450.378 279.559 460.544C282.801 470.71 281.94 464.395 283.72 464.814C284.61 465.027 287.881 469.087 286.81 463.664C285.399 457.693 283.698 454.94 282.207 451.299C282.757 450.959 279.124 436.472 278.104 434.821C279.254 437.914 280.195 441.895 281.346 444.987C281.816 446.978 283.517 449.727 283.517 449.727C284.328 452.27 286.68 462.223 287.78 461.543C288.33 461.204 294.742 467.886 290.479 456.069C291.159 457.171 292.259 456.488 292.469 455.599C292.679 454.711 295.19 459.999 296.421 460.761C297.651 461.52 298.751 460.84 298.49 457.957C297.629 451.646 300.871 461.812 301.631 460.58C299.33 454.399 297.889 454.529 295.798 447.456C294.987 444.912 292.425 435.848 294.806 439.703C298.207 445.205 299.879 454.055 302.39 459.347C302.941 459.008 305.611 459.64 303.99 454.557C302.159 450.366 297.136 439.782 296.875 436.899C294.494 433.048 291.983 427.756 289.262 423.356Z" fill="#FBBC04"/>
<path d="M276.209 458.771C276.129 461.105 277.62 464.746 278.17 464.406C279.27 463.723 276.759 458.431 276.209 458.771Z" fill="#FBBC04"/>
<path d="M266.713 437.337C269.615 446.95 267.104 441.658 266.713 437.337Z" fill="#FBBC04"/>
<path d="M270.688 452.353C268.596 445.279 264.934 436.895 263.393 429.481C263.183 430.374 263.704 436.136 264.095 440.457C265.506 446.428 265.195 439.778 265.325 441.219C265.926 444.651 265.637 447.87 264.146 444.229C262.655 440.587 261.794 434.276 260.433 432.076C255.671 424.371 263.256 444.019 263.046 444.912C262.626 446.689 258.653 431.654 257.423 430.895C255.852 429.584 255.172 428.482 257.734 437.546C256.634 438.229 255.223 432.254 254.202 430.607C253.522 429.505 252.082 429.635 253.833 436.156C251.351 424.762 250.533 438.198 249.042 434.556C249.042 434.556 249.042 434.556 248.702 434.007C249.303 437.44 251.995 447.945 253.747 454.466C254.818 459.888 255.578 458.656 256.048 460.65C256.179 462.088 258.531 472.045 258.69 467.38C258.429 464.501 257.069 462.301 257.619 461.958C258.169 461.618 258.169 461.618 258.719 461.278C258.929 460.39 257.387 452.977 256.786 449.545C256.005 440.899 260.21 464.92 259.87 464.371C260 465.812 259.088 455.725 260.578 459.367C262.409 463.557 263.611 470.421 264.921 468.849C265.471 468.51 265.5 462.408 263.799 459.655C263.459 459.106 263.51 462.878 262.829 461.78C262.098 456.906 263.748 455.883 264.769 457.534C265.449 458.636 265.579 460.078 265.709 461.519C265.97 464.398 265.97 464.398 267.251 468.932C267.201 465.161 265.919 460.627 265.529 456.306C265.999 458.297 269.502 471.342 269.241 468.458C269.321 466.128 267.7 461.045 268.119 459.264C268.329 458.376 269.27 462.357 269.61 462.906C271.651 466.207 265.847 446.981 271.05 462.775C273.352 468.96 274.712 471.16 274.061 463.956C272.859 457.092 278.063 472.89 276.861 466.026C275.32 458.612 272.287 447.558 270.405 439.596C265.622 422.017 269.957 447.479 270.688 452.353Z" fill="#FBBC04"/>
<path d="M248.701 434.004L249.042 434.553C249.042 434.553 248.231 432.013 248.701 434.004Z" fill="#FBBC04"/>
<path d="M229.287 466.551C228.737 466.891 228.289 474.774 229.859 476.085C230.409 475.745 230.387 465.872 229.287 466.551Z" fill="#FBBC04"/>
<path d="M221.507 473.636C222.868 475.836 222.896 469.734 221.796 470.413C221.587 471.306 221.377 472.195 221.507 473.636Z" fill="#FBBC04"/>
<path d="M253.797 458.269C253.326 456.278 252.726 452.846 252.595 451.405C250.764 447.214 252.567 457.507 250.424 446.661C249.483 442.68 247.051 435.058 247.442 439.379C247.703 442.262 248.434 447.135 249.375 451.116C248.434 447.135 247.103 438.83 246.212 438.62C245.322 438.411 245.293 444.513 243.752 437.1C244.483 441.974 245.214 446.843 245.004 447.736C244.533 445.745 242.601 434.007 242.051 434.347C242.051 434.347 242.391 434.9 242.181 435.789C241.971 436.681 242.652 437.779 242.442 438.672C242.362 441.002 242.623 443.885 242.963 444.434C242.855 452.866 241.081 436.472 240.401 435.37C240.061 434.821 239.902 439.481 240.032 440.923C240.163 442.364 240.343 447.578 241.154 450.117C240.604 450.457 239.142 440.714 239.012 439.272C238.882 437.831 237.782 438.51 236.971 435.97C236.03 431.989 236.37 432.538 236.08 435.761C236.001 438.091 235.111 437.882 234.64 435.891C234.3 435.342 232.419 427.376 232.81 431.701C233.28 433.692 234.482 440.556 233.932 440.895C233.722 441.784 232.781 437.803 232.52 434.92C231.058 425.177 231.681 438.482 232.361 439.584C232.021 439.035 230.819 432.171 230.27 432.511C229.72 432.85 230.66 436.831 230.581 439.165C230.842 442.045 228.149 431.539 228.149 431.539C228.019 430.101 227.65 435.654 227.78 437.092C227.151 439.766 226.731 441.547 226.152 447.988C226.073 450.319 225.914 454.983 225.103 452.439C224.292 449.9 223.17 440.706 222.62 441.045C222.071 441.385 221.68 437.064 220.869 434.525C219.668 427.661 219.712 447.408 217.649 434.233C217.96 440.887 218.141 446.101 217.121 444.45C216.1 442.799 215.188 432.712 214.638 433.056C214.088 433.395 216.202 450.342 216.882 451.444C217.664 460.086 216.825 463.648 216.926 471.191C216.898 477.293 219.307 475.042 219.857 474.702C221.507 473.684 218.605 464.067 218.894 460.848C218.474 462.629 218.735 465.508 218.996 468.391C218.945 464.62 218.554 460.295 218.843 457.076C219.002 452.412 219.864 458.727 220.124 461.606C220.305 466.819 222.397 473.893 221.825 464.359C222.114 461.136 221.202 451.049 222.223 452.7C223.243 454.351 223.186 466.559 223.787 469.991C224.518 474.86 225.487 472.74 226.037 472.4C227.687 471.381 229.518 475.571 228.005 462.056C229.286 466.586 228.635 459.383 229.185 459.043C229.185 459.043 230.386 465.907 230.936 465.567C231.486 465.228 229.373 448.277 231.674 454.462C231.804 455.903 233.896 462.973 233.816 465.307C233.527 468.526 232.666 462.214 232.326 461.665C231.645 460.563 231.566 462.894 232.167 466.326C232.898 471.199 232.217 470.097 231.327 469.888C231.848 475.65 234.099 478.063 233.238 471.748C233.788 471.409 235.069 475.939 235.828 474.71C236.588 473.478 237.428 469.916 236.017 463.944C235.756 461.065 234.605 457.973 234.684 455.643C234.214 453.648 235.082 443.984 235.343 446.867C236.074 451.74 236.465 456.061 237.746 460.591C238.477 465.465 239.287 468.004 240.178 468.214C241.068 468.427 242.139 473.849 242.479 474.398C241.249 473.636 236.109 429.659 241.827 467.195C242.689 473.506 244.049 475.71 244.548 471.594C244.758 470.706 244.368 466.385 243.767 462.953C243.716 459.181 243.115 455.749 243.115 455.749C243.115 455.749 243.246 457.191 243.376 458.628C243.846 460.623 243.767 462.953 244.237 464.943C244.968 469.817 245.699 474.687 246.249 474.347C245.518 469.473 242.095 454.098 243.405 452.526C244.165 451.298 246.148 466.804 246.959 469.343C247.639 470.445 247.848 469.556 248.398 469.213C249.289 469.426 248.999 472.645 250.229 473.407C250.91 474.505 250.967 462.301 250.967 462.301C251.438 464.292 251.278 468.952 252.299 470.603C252.979 471.705 252.849 470.263 252.719 468.822C252.589 467.384 251.546 455.856 251.886 456.409C252.567 457.507 254.918 467.463 255.729 470.003C257.22 473.644 256.699 467.882 255.758 463.901C254.477 459.367 254.738 462.25 253.797 458.269Z" fill="#FBBC04"/>
<path d="M216.802 453.723C216.621 448.51 215.42 441.646 215.131 444.868C215.131 444.868 215.131 444.868 214.921 445.757L215.674 460.504C215.753 458.174 215.833 455.844 215.913 453.51C215.283 456.184 217.635 466.136 216.802 453.723Z" fill="#FBBC04"/>
<path d="M211.794 468.984C211.374 470.765 211.475 478.308 212.025 477.969C212.575 477.629 212.893 468.304 211.794 468.984Z" fill="#FBBC04"/>
<path d="M213.357 428.447L212.988 434C212.778 434.893 212.177 431.461 211.417 432.689C211.207 433.582 210.788 435.363 210.158 438.033C209.949 438.925 210.129 444.138 210.129 444.138C210.129 444.138 209.659 442.144 209.738 439.814C209.268 437.823 209.688 436.042 209.478 436.935C209.189 440.153 209.08 448.589 209.131 452.361L209.645 474.099C210.195 473.759 210.542 458.333 210.673 459.774C211.353 460.872 210.456 476.642 211.556 475.963C210.723 463.546 212.265 470.959 212.634 465.406C213.003 459.853 211.541 450.11 213.321 450.529C214.551 451.291 213.763 458.621 213.473 461.844C212.974 465.955 215.196 474.47 214.906 477.693C215.456 477.353 214.993 459.383 215.283 456.16C215.311 450.059 214.688 436.753 215.788 436.07C213.798 436.544 213.668 435.102 213.357 428.447Z" fill="#FBBC04"/>
<path d="M206.629 431.105C206.289 430.556 205.189 431.236 204.69 435.347C204.4 438.57 204.161 445.564 204.082 447.894C203.662 449.675 202.989 432.598 202.649 432.049C202.518 430.608 201.549 432.728 200.999 433.068C200.239 434.3 199.689 434.64 198.799 434.431C197.909 434.221 197.178 429.348 196.18 437.57C195.969 438.463 194.624 462.112 193.553 456.69C193.213 456.141 194.341 449.36 194.211 447.918C193.951 445.035 194.03 442.705 193.9 441.263C193.378 435.501 192.148 434.743 191.048 435.422C190.498 435.762 189.818 434.66 188.979 438.222C187.93 442.677 189.239 441.105 189.239 441.105C189.449 440.213 188.031 450.22 187.821 451.109C187.112 456.113 186.533 462.555 185.824 467.559C185.665 472.219 186.714 467.768 186.425 470.991C186.266 475.651 186.396 477.092 187.156 475.86C188.466 474.292 189.435 472.168 190.094 463.396C190.383 460.173 190.412 454.071 189.782 456.741C188.943 460.303 189.811 450.639 190.361 450.299C190.231 448.858 192.329 439.952 192.25 442.286C192.04 443.175 191.671 448.728 191.461 449.62C190.962 453.732 191.353 458.052 191.063 461.275C191.063 461.275 191.534 463.265 191.795 466.145C192.055 469.028 191.976 471.358 191.766 472.25C191.216 472.59 190.955 469.707 190.536 471.488C190.116 473.269 193.517 478.771 193.025 466.907C193.184 462.243 193.654 464.233 194.074 462.452C194.703 459.782 194.493 460.675 194.443 456.903C194.573 458.341 195.695 467.535 195.485 468.427C195.876 472.748 197.186 471.176 198.286 470.497C200.247 476.129 198.684 458.842 199.262 452.397C199.132 450.959 200.022 451.168 200.022 451.168C200.362 451.717 200.203 456.382 199.993 457.27C199.834 461.931 200.486 469.134 200.985 465.023C201.824 461.461 202.063 454.47 203.112 450.015C204.212 449.336 203.691 443.574 205.001 442.002C205.211 441.113 204.184 455.438 204.314 456.879C204.365 460.651 203.916 468.534 204.386 470.525C205.537 473.617 206.326 466.283 205.595 461.409C205.334 458.53 205.073 455.647 205.153 453.317C204.893 450.438 205.233 450.987 205.913 452.089C208.793 451.828 208.199 432.416 206.629 431.105Z" fill="#FBBC04"/>
<path d="M185.127 440.642C186.256 433.857 183.029 449.545 185.127 440.642Z" fill="#FBBC04"/>
<path d="M186.069 444.6C185.728 444.051 186.987 438.708 187.067 436.374C186.806 433.494 185.757 437.945 185.128 440.619C184.288 444.182 180.482 466.31 182.971 461.729C182.472 465.84 182.183 469.063 181.503 467.961C180.924 474.407 184.043 467.152 184.802 465.919C186.742 461.678 188.421 454.553 188.949 444.34C190.475 425.9 187.089 446.251 186.069 444.6Z" fill="#FBBC04"/>
<path d="M173.375 432.681C174.004 430.011 173.664 429.458 173.664 429.458L173.114 429.798C172.695 431.579 172.825 433.02 173.375 432.681Z" fill="#FBBC04"/>
<path d="M157.476 446.295L157.266 447.183C156.296 449.304 156.086 450.197 156.086 450.197C154.907 453.206 153.728 456.219 154.618 456.429C155.168 456.089 158.236 445.062 158.656 443.281C158.315 442.732 157.345 444.853 157.476 446.295Z" fill="#FBBC04"/>
<path d="M157.476 446.294C157.896 444.513 155.537 450.536 156.087 450.196C156.297 449.303 157.057 448.075 157.266 447.183C156.716 447.522 156.926 446.634 157.476 446.294Z" fill="#FBBC04"/>
<path d="M151.629 465.114C151.079 465.453 151.368 462.235 150.478 462.025C147.569 468.388 151.079 465.453 151.629 465.114Z" fill="#FBBC04"/>
<path d="M181.243 465.055C180.143 465.734 181.431 454.288 180.671 455.521C179.911 456.753 179.072 460.311 178.312 461.543C178.312 461.543 176.792 464.004 177.212 462.223C176.582 464.897 175.953 467.566 175.663 470.789C176.242 464.344 176.741 460.232 177.66 454.34C176.271 458.242 173.543 469.818 173.282 466.938C172.812 464.948 174.23 454.94 175.75 452.48C175.959 451.591 176.929 449.47 176.039 449.257C175.908 447.819 174.939 449.94 174.729 450.829C173.76 452.95 172.37 456.852 172.421 460.623C171.712 465.627 169.903 471.31 169.223 470.209C168.542 469.111 170.51 458.763 171.14 456.093C171.009 454.652 169.28 458.005 169.201 460.335C168.911 463.558 168.832 465.888 168.202 468.558C166.523 475.682 165.503 474.032 166.972 467.799C166.342 470.469 165.163 473.483 165.373 472.59C165.242 471.152 166.161 465.256 166.791 462.586C168.549 453.131 170.648 444.225 172.406 434.774C170.937 441.006 167.818 448.258 167.449 453.81C166.82 456.484 167.081 459.363 166.241 462.926C165.401 466.488 165.771 460.935 165.98 460.047C166.48 455.935 169.077 442.918 167.558 445.378C166.798 446.611 165.09 459.837 165.43 460.386C164.352 470.939 163.071 466.409 162.521 466.749C161.971 467.089 159.482 471.674 159.771 468.451C159.641 467.01 161.66 460.438 162.08 458.656C162.709 455.983 165.307 442.969 164.967 442.416C164.626 441.867 160.98 459.336 160.639 458.787C160.639 458.787 161.138 454.675 160.169 456.796C159.409 458.025 158.49 463.917 157.521 466.038C154.322 475.623 156.29 465.28 157.549 459.936C156.5 464.391 153.722 472.195 155.06 464.521C156.739 457.397 160.096 443.147 162.325 435.687L160.386 439.928C158.656 443.277 157.267 447.179 155.668 451.974C153.15 462.657 155.277 447.653 155.277 447.653C155.277 447.653 154.438 451.212 153.808 453.886C153.179 456.555 152.209 458.676 152.288 456.346C152.158 454.904 149.799 460.927 148.909 460.718C148.359 461.058 150.038 453.937 149.488 454.277C150.038 453.937 143.221 474.889 144.01 467.555C144.509 463.443 148.887 450.844 150.356 444.612C149.176 447.622 147.997 450.635 146.477 453.096C145.508 455.216 143.568 459.458 142.389 462.472C142.389 462.472 143.489 461.792 143.619 463.23C143.12 467.345 140.319 465.272 140.319 465.272C139.769 465.611 137.229 466.425 139.928 460.951C147.345 443.431 134.899 466.346 135.058 461.682C135.687 459.012 139.986 448.743 141.715 445.394C144.624 439.032 148.373 429.103 150.652 425.414C152.722 422.61 151.202 425.07 149.393 430.754C148.004 434.656 147.845 439.32 147.085 440.548C149.364 436.859 151.933 429.944 154.082 424.81C152.903 427.823 144.776 450.347 147.686 443.98C150.384 438.506 153.163 430.702 154.893 427.353C156.412 424.889 159.582 421.409 156.253 429.553C158.482 422.089 158.323 426.753 157.484 430.311C157.274 431.204 154.966 440.999 157.324 434.976C158.924 430.181 161.283 424.158 160.993 427.381C161.044 431.153 162.093 426.702 162.643 426.362C161.305 434.036 166.754 426.86 167.644 427.069C167.644 427.069 168.534 427.278 168.245 430.501C168.035 431.39 167.615 433.171 167.195 434.952C166.776 436.733 166.356 438.514 166.356 438.514C166.906 438.175 168.925 431.603 169.685 430.371C171.204 427.91 170.915 431.129 170.835 433.463C169.417 443.467 171.726 433.672 172.355 431.002C173.115 429.77 173.665 429.431 173.455 430.319C173.795 430.868 172.406 434.77 172.746 435.323C172.536 436.212 175.315 428.408 175.105 429.3C175.576 431.291 174.577 439.514 174.628 443.285C174.599 449.387 176.516 435.272 177.356 431.709C178.484 424.928 177.957 435.142 179.006 430.69C177.038 441.034 181.206 429.328 181.256 433.1C180.547 438.104 179.498 442.555 179.889 446.875L180.07 452.089C180.779 447.085 181.488 442.085 181.647 437.42C181.857 436.532 182.016 431.867 182.226 430.979C182.986 429.747 182.566 431.528 182.486 433.858C182.486 433.858 183.796 432.29 183.717 434.62C183.218 438.732 183.008 439.624 183.898 439.833C184.657 438.601 185.497 435.039 184.448 439.494C186.308 437.582 184.788 440.043 186.127 432.369C186.047 434.699 188.377 434.778 186.069 444.573C185.36 449.577 185.62 452.46 184.571 456.911L183.653 462.803C181.532 461.832 181.322 462.724 181.243 465.055ZM170.908 447.108C170.438 445.118 169.519 451.01 168.339 454.024C167.92 455.801 168.05 457.243 167.63 459.024C169.02 455.122 170.959 450.88 170.908 447.108Z" fill="#FBBC04"/>
<path d="M136.273 436.61C137.453 433.601 139.182 430.248 139.392 429.359C138.502 429.146 133.784 441.196 136.273 436.61Z" fill="#FBBC04"/>
<path d="M143.581 427.507C142.271 429.079 140.881 432.981 139.022 434.892C136.193 438.925 139.991 432.767 140.831 429.209C141.801 427.084 145.339 418.052 142.3 422.973C140.02 426.666 137.112 433.028 135.172 437.274C131.974 446.859 131.583 442.534 131.583 442.534C130.613 444.655 128.884 448.008 127.704 451.022C127.494 451.91 126.944 452.25 126.735 453.143C125.215 455.603 122.725 460.184 121.966 461.417C121.127 464.979 124.166 460.054 125.345 457.045C125.555 456.152 130.953 445.208 129.904 449.659C128.725 452.673 126.025 458.143 124.846 461.156C123.666 464.165 125.526 462.258 126.626 461.575C128.486 459.663 129.166 460.765 130.607 460.635C132.597 460.165 137.734 446.338 139.883 441.203C144.102 433.269 147.93 421.01 143.581 427.507Z" fill="#FBBC04"/>
<path d="M127.625 453.392C127.835 452.499 128.385 452.159 128.595 451.271C130.115 448.806 124.796 457.424 127.625 453.392Z" fill="#FBBC04"/>
<path d="M115.741 444.004C113.672 446.808 107.593 456.654 109.663 453.85C111.523 451.938 116.631 444.213 115.741 444.004Z" fill="#FBBC04"/>
<path d="M116.109 438.459C112.599 441.394 106.651 452.681 108.851 451.319C110.501 450.3 120.038 433.748 116.109 438.459Z" fill="#FBBC04"/>
<path d="M116.113 438.471C118.183 435.671 113.703 440.722 116.113 438.471Z" fill="#FBBC04"/>
<path d="M74.2027 414.928C68.153 418.672 64.5639 423.933 70.8233 419.3C74.5431 415.477 78.8127 411.314 74.2027 414.928Z" fill="#FBBC04"/>
<path d="M92.2069 376.366C88.5669 377.858 83.7477 382.361 92.2069 376.366Z" fill="#FBBC04"/>
<path d="M142.17 421.52C140.861 423.092 136.172 429.036 140.731 421.65C143.77 416.725 141.57 418.088 141.23 417.539C139.789 417.669 139.11 416.567 136.15 419.158C133.19 421.753 136.099 415.386 134.659 415.517C133.218 415.647 125.411 428.846 130.389 419.679C133.978 414.419 128.269 418.712 129.579 417.14C132.618 412.215 128.428 414.048 127.538 413.838C126.648 413.629 127.827 410.616 126.387 410.746C126.177 411.638 125.207 413.759 123.348 415.671C121.488 417.582 121.908 415.801 121.568 415.252C120.678 415.039 120.048 417.713 119.158 417.503C118.608 417.843 119.787 414.83 122.197 412.578L123.087 412.788C126.126 407.867 125.787 407.318 123.586 408.676C121.387 410.039 125.316 405.323 124.426 405.114C123.535 404.905 119.056 409.96 116.306 411.658C113.556 413.36 119.346 406.737 120.315 404.616C123.355 399.691 115.785 405.896 116.415 403.226C116.284 401.785 116.834 401.445 113.455 405.817C110.835 408.961 112.985 403.826 112.985 403.826C111.754 403.068 109.894 404.98 116.233 398.013C118.643 395.762 112.934 400.055 111.834 400.734C107.564 404.897 105.705 406.808 104.814 406.599C106.334 404.138 102.615 407.962 99.9948 411.101C97.5854 413.352 86.2166 425.714 85.8763 425.161C84.9864 424.952 95.9352 414.375 97.795 412.464C99.1045 410.892 106.334 404.138 107.224 404.348C111.494 400.185 118.383 392.88 110.604 399.976C112.123 397.515 114.533 395.264 113.643 395.051C110.683 397.646 110.003 396.544 109.113 396.334C107.882 395.572 110.502 392.432 107.202 394.473C106.102 395.153 104.452 396.176 102.252 397.535C105.972 393.713 109.691 389.891 109.901 389C109.901 389 109.351 389.341 108.041 390.912C106.942 391.592 105.632 393.163 103.432 394.524C100.472 397.116 96.9624 400.047 96.2024 401.279C101.572 396.437 106.942 391.592 106.261 390.492C105.921 389.941 105.791 388.501 101.181 392.114C104.141 389.522 104.901 388.291 105.111 387.401C105.321 386.51 104.011 388.081 100.161 390.463L104.09 385.75C103.75 385.2 96.9403 390.174 94.7405 391.535C93.6406 392.215 89.2407 394.937 89.5806 395.489C89.9209 396.038 88.0614 397.95 88.0614 397.95C87.1712 397.74 86.8309 397.187 90.0003 393.706C92.6201 390.565 96.81 388.732 98.6699 386.821C101.08 384.57 92.0698 390.905 90.9699 391.585C88.7701 392.946 94.1397 388.103 94.8996 386.872C99.1689 382.709 98.6987 380.719 91.339 386.033C90.2391 386.714 91.0784 383.152 95.478 380.429C93.8282 381.45 89.2186 385.063 88.8783 384.513C87.9884 384.302 90.9482 381.711 92.2581 380.14C94.1179 378.228 84.8984 385.454 83.2485 386.474C85.4483 385.113 84.2177 384.353 88.6177 381.631C89.7176 380.95 96.5277 375.977 95.6375 375.767C95.0875 376.107 93.9877 376.788 92.8874 377.468L91.9971 377.258C92.5471 376.918 91.4472 377.599 91.4472 377.599C87.8072 379.09 82.3074 382.493 77.9074 385.215C75.1577 386.917 71.098 390.189 70.2082 389.979C74.6077 387.257 78.6674 383.984 83.0669 381.262C86.367 379.22 84.3772 379.691 86.0271 378.67C87.337 377.099 92.0769 374.927 92.2869 374.037C92.2869 374.037 92.4965 373.146 90.8467 374.167C88.6465 375.528 84.3772 379.691 81.8372 380.502C79.6374 381.863 82.0472 379.611 83.3567 378.041C89.6165 373.407 91.0567 373.277 89.4862 371.966C87.3658 370.996 79.2461 377.541 70.7865 383.536C66.7269 386.808 60.6771 390.551 56.0675 394.163C45.9577 401.18 61.1473 392.542 61.1473 392.542C61.1473 392.542 58.9475 393.903 56.7477 395.264C54.5476 396.627 52.3478 397.985 51.7979 398.325C52.1378 398.878 57.2981 394.924 59.2878 394.453C62.3779 393.302 61.9582 395.082 63.9484 394.612C65.3882 394.482 69.0285 392.99 64.4186 396.603C62.7687 397.622 57.0592 401.915 56.169 401.706C57.3992 402.468 56.9795 404.249 60.4098 403.649C62.9499 402.835 71.0688 396.291 75.4688 393.569C71.4091 396.84 74.4996 395.691 75.0495 395.351C75.5994 395.011 69.3396 399.644 69.3396 399.644C66.04 401.686 55.3008 411.37 62.4505 406.946C66.8505 404.225 70.5698 400.402 74.0795 397.472C76.4893 395.221 81.0195 393.939 78.6097 396.188C78.0598 396.532 73.6598 399.253 73.4502 400.142C73.2402 401.034 77.0902 398.653 74.1304 401.243C72.2706 403.155 70.6207 404.174 68.7613 406.086C72.8209 402.815 93.1191 386.452 88.9801 392.056C88.2201 393.287 64.8315 410.801 65.3818 410.458C67.3716 409.988 77.6911 402.085 79.8908 400.722C78.7909 401.401 71.3515 409.048 70.2516 409.727C67.4221 413.759 78.031 402.634 76.7214 404.206C78.5813 402.294 79.2615 403.392 80.3614 402.713C83.8711 399.782 82.5612 401.35 83.4515 401.563C81.5916 403.471 71.6124 411.931 73.6819 409.127C69.6223 412.401 63.8331 419.024 68.993 415.07C72.2927 413.029 81.382 404.364 83.922 403.554C83.922 403.554 81.5118 405.805 78.2122 407.847C75.2524 410.438 72.8426 412.689 72.8426 412.689C72.9733 414.13 82.952 405.675 86.4617 402.74C87.352 402.95 82.4021 406.014 83.0823 407.112C83.4226 407.665 83.7629 408.214 82.453 409.786C81.1431 411.358 80.1735 413.479 77.5537 416.619C75.6942 418.53 73.2844 420.781 74.1742 420.991C75.0645 421.204 77.2647 419.841 75.9548 421.413C74.3049 422.432 74.0949 423.325 74.6448 422.985C75.5351 423.194 78.2848 421.492 79.9346 420.469C81.0349 419.79 85.9848 416.729 84.4653 419.19C83.9149 419.529 79.0953 424.032 79.0953 424.032C80.1952 423.352 88.3149 416.808 88.5245 415.916C86.455 418.72 92.1649 414.427 91.4049 415.655C89.8854 418.119 83.9659 423.301 81.0061 425.892C83.4159 423.641 84.5158 422.961 85.8257 421.39C82.3156 424.324 81.8166 428.435 81.8166 428.435C81.9469 429.877 80.0077 434.119 85.4566 426.942C92.3457 419.64 88.7567 424.901 95.4358 418.487C96.536 417.807 100.805 413.645 99.2858 416.105C97.9758 417.677 95.7761 419.036 94.4665 420.608C91.8467 423.751 98.3162 418.226 94.9367 422.598C92.3169 425.742 89.9071 427.993 89.6975 428.882C89.4874 429.774 85.7677 433.597 86.658 433.807C88.8577 432.444 89.958 431.765 88.4385 434.225C91.0579 431.085 101.667 419.956 102.086 418.175C103.606 415.714 112.015 405.947 108.426 411.212C101.457 420.849 113.245 406.71 113.375 408.147C113.715 408.7 111.096 411.84 109.236 413.751C106.067 417.235 107.246 414.221 105.726 416.686C105.176 417.025 102.897 420.718 99.7271 424.198C98.4172 425.769 96.5581 427.681 95.7982 428.913C95.0382 430.142 93.9383 430.825 93.9383 430.825C93.9383 430.825 102.687 421.607 100.407 425.3C98.8878 427.76 98.1282 428.992 96.8187 430.564C99.4382 427.42 101.769 427.499 100.249 429.96C98.1792 432.764 93.9095 436.927 93.4898 438.708C96.6592 435.224 95.48 438.238 96.9995 435.773C98.3094 434.205 100.929 431.062 101.688 429.83C101.688 429.83 101.898 428.941 102.108 428.052C104.728 424.909 113.057 417.472 115.467 415.221C113.397 418.025 109.468 422.736 108.499 424.857C109.388 425.066 105.459 429.782 105.799 430.331C106.139 430.88 118.897 414.62 119.918 416.271C118.477 416.401 108.679 430.07 105.3 434.442C101.161 440.047 104.88 436.224 108.05 432.74C105.221 436.773 95.632 449.553 102.731 441.358C113.419 427.898 101.211 443.818 104.721 440.888C109.331 437.274 112.03 431.8 110.59 431.931C109.7 431.721 118.659 421.615 120.518 419.703C118.789 423.056 117.059 426.405 114.44 429.549C112.71 432.902 109.54 436.382 107.811 439.735C106.291 442.195 105.662 444.869 104.352 446.441L111.321 436.804C111.321 436.804 106.212 444.529 106.002 445.418C104.273 448.771 107.442 445.288 109.302 443.376C107.993 444.948 108.383 449.269 107.833 449.608C112.522 443.664 116.741 435.73 120.54 429.577C121.85 428.005 122.74 428.218 122.19 428.558C122.531 429.107 120.461 431.907 119.701 433.139C117.762 437.381 124.181 428.088 124.94 426.856C125.49 426.516 127.14 425.493 126.93 426.386C126.17 427.614 122.451 431.437 120.171 435.13C118.862 436.702 112.913 447.989 112.913 447.989C114.223 446.417 122.921 433.427 124.441 430.967C126.511 428.167 125.671 431.729 123.601 434.529C121.322 438.222 114.824 449.849 117.024 448.487C118.124 447.807 119.434 446.235 119.564 447.677C119.354 448.566 117.284 451.37 117.284 451.37C116.865 453.151 124.043 442.622 125.353 441.054C126.113 439.822 124.094 446.393 123.884 447.286C124.434 446.946 121.315 454.198 125.324 447.156C127.813 442.57 130.723 436.208 131.953 436.97C128.704 442.784 120.476 457.76 124.745 453.597C126.186 453.467 134.362 434.719 136.982 431.575C137.192 430.687 129.015 449.435 128.465 449.774C129.565 449.095 137.663 432.677 139.942 428.984C139.602 428.431 146.1 416.808 142.17 421.52Z" fill="#FBBC04"/>
<path d="M44.3711 374.082C42.3809 374.553 35.9913 377.746 36.3314 378.296C36.6716 378.846 44.7114 374.632 44.3711 374.082Z" fill="#FBBC04"/>
<path d="M72.6586 349.719C75.7487 348.568 69.5686 350.87 72.6586 349.719Z" fill="#FBBC04"/>
<path d="M57.7968 390.855C58.1371 391.405 69.3464 383.709 69.3464 383.709C69.3464 383.709 65.5762 383.76 71.4159 380.908C73.0658 379.887 71.2063 381.798 73.9564 380.097C78.9059 377.034 84.6158 372.741 86.4756 370.83C88.8855 368.578 87.315 367.268 84.2249 368.419C82.2348 368.89 71.2351 375.695 75.8447 372.083C77.1546 370.511 81.8945 368.339 84.0947 366.978C86.2944 365.617 84.5139 365.197 84.5139 365.197C83.6237 364.987 80.324 367.03 78.3339 367.5C76.3441 367.971 78.5443 366.609 79.3039 365.379C80.0638 364.148 84.2028 358.544 76.1629 362.758C75.063 363.438 65.3732 368.673 68.6733 366.631C71.6331 364.039 75.2726 362.548 78.0228 360.847C76.3725 361.868 69.6425 364.51 77.3421 359.746C80.6422 357.705 74.2525 360.898 74.2525 360.898C73.9122 360.348 78.8621 357.285 79.0717 356.395C79.2818 355.504 73.7819 358.906 74.5419 357.676C76.4017 355.765 79.7014 353.723 78.4712 352.963C78.4712 352.963 77.0314 353.093 75.9315 353.774C74.8313 354.454 73.3911 354.584 73.3911 354.584C73.0508 354.034 74.9106 352.123 74.0204 351.913C73.6805 351.363 76.0903 349.111 72.4503 350.603C71.56 350.393 70.4597 351.073 68.8099 352.094C68.26 352.434 70.2501 351.964 69.1502 352.645C66.9504 354.006 64.2003 355.707 62.0005 357.068C57.6006 359.79 52.4411 363.743 46.6013 366.596C43.3012 368.637 40.0012 370.679 38.3514 371.7C37.0416 373.271 44.5318 369.398 45.6317 368.717C50.9215 366.205 42.6715 371.309 44.1117 371.178C44.6617 370.838 47.7517 369.687 48.3017 369.347C46.1019 370.708 41.7019 373.43 41.4923 374.32C41.4923 374.32 57.9121 366.443 59.9022 365.973C66.9722 363.88 53.8524 369.716 54.1923 370.266C54.1923 370.266 59.4826 367.754 60.3728 367.964C61.2627 368.173 58.5126 369.875 56.8627 370.896C53.5631 372.937 49.713 375.319 46.413 377.361C47.5129 376.68 57.8837 372.546 57.3337 372.887C53.2737 376.159 43.6633 379.062 41.8038 380.973C39.3939 383.225 52.3037 378.28 42.9542 384.065L54.5038 376.919C55.3941 377.129 45.154 382.704 49.1343 381.763C51.1244 381.292 51.6744 380.951 56.4142 378.78C57.8544 378.649 57.6448 379.54 57.9851 380.09C56.7549 379.33 45.7549 386.135 51.9349 383.833C53.9251 383.362 48.9752 386.425 48.4252 386.765C47.6653 387.996 51.3056 386.504 51.6455 387.054C51.6455 387.054 44.4161 393.809 51.0163 389.726C53.216 388.364 58.9259 384.071 60.3657 383.941C61.4656 383.261 58.8462 386.403 61.5959 384.701C62.1458 384.361 63.4557 382.79 64.8959 382.66C65.9958 381.979 56.5666 390.095 54.3668 391.456C54.0265 390.906 59.3961 386.062 50.0466 391.847C49.4967 392.187 48.8666 394.858 49.4166 394.518C49.7569 395.067 51.747 394.598 47.8974 396.978C48.7873 397.191 48.2373 397.531 49.8875 396.508C56.6176 393.867 58.6871 391.065 57.7968 390.855Z" fill="#FBBC04"/>
<path d="M28.3625 338.293C31.1124 336.592 28.0223 337.743 28.3625 338.293Z" fill="#FBBC04"/>
<path d="M39.9498 366.897C40.1595 366.006 46.079 360.822 47.3091 361.583C43.2495 364.855 61.8694 355.617 56.3696 359.019C53.0699 361.061 48.8796 362.893 49.5598 363.993C49.5598 363.993 50.4501 364.203 52.1003 363.182C60.6898 358.628 59.1197 357.318 63.1794 354.046C65.9295 352.344 73.969 348.131 73.6287 347.581C73.2888 347.031 72.9485 346.48 72.0582 346.27C71.1684 346.06 66.6381 347.342 68.8379 345.981C70.4878 344.96 71.588 344.279 67.0578 345.561C67.0578 345.561 65.2777 345.141 67.2678 344.671C66.7179 345.011 61.0878 346.973 61.0878 346.973C62.1876 346.292 68.9177 343.65 69.6776 342.419C70.2276 342.079 66.2477 343.02 65.6973 343.36C63.1577 344.171 55.8773 347.154 58.7573 346.893C52.9175 349.746 58.4174 346.343 55.3274 347.495C54.7774 347.835 52.0273 349.536 49.4872 350.347C46.9471 351.158 45.0876 353.069 45.0876 353.069C44.7473 352.519 56.4272 346.814 59.1774 345.113C61.9271 343.411 64.1269 342.05 65.4364 340.479C66.5367 339.798 68.4763 335.556 68.4763 335.556C67.9263 335.896 60.4364 339.769 58.7861 340.79C58.1059 339.69 65.3859 336.707 65.5959 335.817C66.3559 334.586 62.7155 336.077 59.2851 336.678C56.1951 337.829 56.9551 336.599 61.4853 335.317C65.1253 333.826 63.3452 333.406 63.0049 332.856C62.6649 332.305 62.8746 331.415 59.7846 332.566C58.6847 333.247 51.9546 335.889 54.7044 334.188C62.4044 329.424 61.8544 329.765 51.2744 334.789C50.9345 334.239 57.6641 331.596 59.314 330.576C58.974 330.025 62.8241 327.643 61.9338 327.433C61.0435 327.223 48.0541 334.5 52.6637 330.887C55.0735 328.635 60.1537 327.014 58.9235 326.254C58.5836 325.703 52.7434 328.556 49.3131 329.157C48.7632 329.497 40.5929 332.27 40.043 332.61C39.493 332.951 38.3134 335.962 32.6832 337.924C28.4932 339.756 31.6628 336.274 26.3729 338.786C26.0327 338.236 19.6429 341.428 16.0029 342.92C18.5429 342.109 20.7429 340.748 22.183 340.617C18.2028 341.559 15.0333 345.041 15.9234 345.251C17.7037 345.671 21.6838 344.73 26.2139 343.448C30.1941 342.507 38.2339 338.294 33.6242 341.906C28.1244 345.309 31.2143 344.158 36.2944 342.536C33.5446 344.237 30.2447 346.278 30.5848 346.829C30.2447 346.278 24.2744 347.69 24.4047 349.131C24.7449 349.681 22.5448 351.043 22.885 351.593C23.2251 352.143 41.8452 342.905 37.7854 346.177C33.7257 349.449 17.3854 354.995 23.486 355.024C25.8162 355.103 30.216 352.382 34.0659 350C38.2559 348.168 38.5961 348.718 42.996 345.996C43.336 346.546 34.4058 350.55 32.2059 351.911C28.5659 353.402 24.9259 354.894 22.1761 356.596C19.9761 357.957 23.0662 356.805 24.7162 355.784C29.4561 353.612 36.056 349.529 38.9362 349.268C40.3762 349.138 38.7265 350.159 36.5266 351.52C36.1864 350.97 26.9161 354.423 26.1562 355.654C26.1562 355.654 29.5864 355.053 27.0464 355.864C24.2965 357.565 25.3964 356.885 25.7365 357.435C26.0767 357.985 22.4369 359.477 22.7771 360.027C23.1172 360.577 30.9978 361.026 33.1977 359.665C32.0977 360.345 29.5577 361.156 28.7979 362.387C27.148 363.408 28.5882 363.277 28.9284 363.827C29.2685 364.378 26.8584 366.629 28.2985 366.499C29.1887 366.709 37.7787 362.155 35.3689 364.406C33.719 365.427 28.5592 369.38 33.8492 366.868C28.8993 369.93 34.1098 369.749 32.7999 371.32C29.8402 373.912 44.06 367.396 46.4698 365.145C45.1599 366.716 39.9498 366.897 39.9498 366.897Z" fill="#FBBC04"/>
<path d="M26.011 328.343C23.4709 329.154 22.371 329.834 23.2611 330.044C26.3512 328.893 26.9011 328.552 26.011 328.343Z" fill="#FBBC04"/>
<path d="M20.3311 326.56C21.0114 327.66 7.76109 332.055 20.3311 326.56Z" fill="#FBBC04"/>
<path d="M61.2037 322.553C61.4137 321.663 61.6233 320.772 60.1831 320.902C59.2933 320.693 54.2131 322.314 58.953 320.142C56.4133 320.953 54.0828 320.874 55.7327 319.853C56.8325 319.172 59.163 319.252 58.6131 319.592C60.4729 317.681 58.6924 317.261 58.5621 315.82C57.8819 314.72 58.8515 312.599 51.5715 315.582C50.4717 316.263 54.3213 313.881 55.9715 312.86C48.3512 315.292 57.7011 309.507 55.921 309.088C55.0307 308.878 38.8205 315.864 31.2003 318.297C31.2003 318.297 30.6502 318.637 29.21 318.768C26.12 319.919 21.3802 322.091 17.7402 323.582C18.0803 324.133 23.3702 321.62 24.8102 321.49C28.2404 320.889 20.9605 323.872 18.7606 325.233C17.1107 326.253 26.1711 323.691 26.7211 323.35C29.2612 322.539 27.0609 323.9 27.951 324.111C27.951 324.111 28.5013 323.77 30.4914 323.3C31.5913 322.619 33.581 322.148 34.681 321.468C37.7711 320.317 40.3113 319.506 37.5614 321.207C35.9115 322.228 24.4414 327.042 23.5512 326.832C13.1811 330.966 8.99109 332.798 12.7614 332.748C13.6515 332.958 16.4522 335.028 18.6521 333.667C23.3921 331.495 20.1718 331.205 20.3817 330.315C21.1415 329.084 23.8916 327.383 28.4218 326.101C30.9618 325.291 34.1312 321.808 37.5614 321.207C39.0015 321.077 35.1517 323.458 34.6017 323.799C33.5017 324.479 36.3819 324.219 35.8319 324.559C35.622 325.449 29.6519 326.861 29.7822 328.302C30.1224 328.852 31.7722 327.831 31.0124 329.062C29.9124 329.743 19.1228 335.657 19.4629 336.208C19.4629 336.208 25.6429 333.906 26.1929 333.565C29.2829 332.414 29.6229 332.964 33.2629 331.473C35.803 330.662 43.6331 327.339 45.0733 327.208C47.0634 326.738 40.6733 329.931 41.2233 329.591C41.7732 329.25 49.6035 325.927 51.2533 324.906C53.7934 324.095 55.7832 323.625 57.9834 322.264C53.2431 324.436 47.4033 327.288 44.1037 329.33C44.1037 329.33 43.0038 330.01 41.3535 331.031C39.7037 332.052 38.0538 333.073 37.1637 332.863C36.2736 332.653 39.3636 331.501 36.4834 331.762C34.4933 332.233 31.9532 333.044 28.8632 334.195C27.7632 334.875 14.3031 340.161 15.1933 340.371C15.5334 340.921 27.0034 336.106 28.6534 335.085C26.4534 336.447 16.7634 341.681 17.1035 342.231C17.4437 342.781 28.574 337.417 29.674 336.736C29.3338 336.186 36.9538 333.753 38.3939 333.623C43.684 331.111 60.4437 323.783 61.2037 322.553Z" fill="#FBBC04"/>
<path d="M28.6568 319.126C29.2068 318.786 29.7566 318.446 30.6468 318.655C30.6468 318.655 26.6668 319.597 28.6568 319.126Z" fill="#FBBC04"/>
<path d="M40.1301 314.285C41.99 312.374 43.4302 312.244 50.3698 308.71C55.1101 306.538 52.7796 306.459 52.4397 305.909C51.2092 305.148 50.3987 302.607 38.3786 307.762C37.6983 306.662 44.5585 305.46 46.4184 303.549C45.7381 302.449 34.6082 307.813 30.9681 309.305C25.6781 311.817 22.7184 314.408 31.0984 310.745C28.0084 311.896 7.73862 322.156 11.7188 321.214C20.0988 317.551 36.859 310.223 38.4294 311.534C35.8893 312.345 33.6893 313.706 31.1492 314.517C26.4092 316.689 20.7791 318.651 15.4891 321.163C7.10904 324.827 25.6494 317.919 30.0492 315.197C27.2993 316.899 21.2497 320.642 25.9897 318.47C29.6297 316.978 33.2698 315.487 36.3598 314.336C36.4901 315.776 39.9201 315.175 40.1301 314.285Z" fill="#FBBC04"/>
<path d="M9.88817 317.065C5.48829 319.787 9.12839 318.295 13.3184 316.464L12.9781 315.913C12.4281 316.254 11.3282 316.934 9.88817 317.065Z" fill="#FBBC04"/>
<path d="M742.303 362.923C747.096 364.523 746.705 360.2 742.804 358.811L742.931 360.251C742.173 361.482 741.964 362.373 742.303 362.923Z" fill="#FBBC04"/>
<path d="M741.672 365.644C741.672 365.644 741.332 365.094 740.783 365.434C740.444 364.884 744.265 368.605 741.672 365.644Z" fill="#FBBC04"/>
<path d="M741.332 365.053C741.332 365.053 741.332 365.053 742.22 365.263C746.512 370.975 752.982 365.451 740.313 363.402C740.1 364.293 740.444 364.843 741.332 365.053Z" fill="#FBBC04"/>
<path d="M571.125 467.301C577.09 481.867 574.978 464.92 571.125 467.301Z" fill="#FBBC04"/>
<path d="M527.837 489.561C527.288 489.904 526.739 490.244 526.186 490.584C526.107 492.914 528.776 493.542 529.329 493.202C530.217 493.411 528.385 489.221 527.837 489.561Z" fill="#FBBC04"/>
<path d="M707.068 349.017C703.298 349.068 705.418 350.038 707.878 351.558C709.998 352.528 706.989 351.348 706.437 351.688C706.989 351.348 720.602 357.378 716.492 356.879C712.378 356.38 706.358 354.019 701.569 352.42C697.668 351.03 691.778 350.11 695.465 352.391C700.258 353.991 701.699 353.86 706.827 356.01C706.748 358.341 697.929 353.911 697.716 354.801C697.506 355.692 700.519 356.872 703.527 358.052C703.108 359.833 695.726 355.272 694.968 356.503C694.206 357.733 694.759 357.393 692.978 356.974C689.417 356.134 693.787 359.515 697.139 361.245C701.379 363.185 702.058 364.285 701.849 365.176C698.158 362.895 694.81 361.165 691.458 359.435C686.879 356.945 692.477 361.086 693.16 362.186C693.839 363.286 692.737 363.967 692.528 364.857C692.528 364.857 695.252 369.259 695.801 368.919C694.699 369.599 678.027 358.617 688.47 368.13C691.608 370.75 688.6 369.571 687.708 369.361C684.36 367.63 685.718 369.831 686.531 372.372C688.15 377.454 685.22 373.943 680.98 372.003C676.188 370.403 685.063 378.605 689.224 382.876C687.313 381.016 686.421 380.806 683.282 378.186C681.711 376.875 680.479 376.115 679.591 375.905C676.579 374.726 675.742 378.287 673.752 378.758C671.762 379.228 668.541 378.939 668.462 381.27C668.592 382.711 674.111 389.182 676.022 391.043C674.111 389.182 674.241 390.623 672.331 388.763C671.103 388.003 670.08 386.352 669.062 384.701C667.49 383.391 667.621 384.832 667.411 385.722C667.621 384.832 668.221 388.263 668.221 388.263C667.463 389.494 665.003 387.974 664.581 389.755C664.162 391.536 669.472 398.897 666.464 397.716C663.452 396.539 656.152 389.647 656.203 393.418C656.334 394.859 660.463 405.232 654.683 395.88C654.814 397.321 655.493 398.419 656.511 400.07C647.798 387.207 646.251 395.773 643.842 398.024C643.29 398.364 637.451 401.216 640.171 405.615C639.413 406.848 638.39 405.197 637.502 404.987C636.061 405.118 634.411 406.137 633.653 407.369C631.793 409.28 628.442 407.551 626.582 409.462C626.033 409.802 624.044 410.272 626.085 413.573C627.782 416.326 627.913 417.764 627.364 418.107C626.815 418.447 625.035 418.024 623.333 415.276C621.552 414.857 621.813 417.736 620.242 416.425C619.902 415.876 615.402 411.054 617.573 415.797C619.274 418.546 619.875 421.978 619.326 422.317C618.303 420.671 615.792 415.378 615.453 414.825C613.542 412.965 614.324 421.611 613.562 422.843C612.804 424.071 610.893 422.211 609.452 422.341C607.672 421.922 603.641 419.091 605.603 424.723C607.095 428.364 607.904 430.907 609.397 434.549C607.146 432.136 603.874 428.076 601.963 426.216C598.824 423.593 605.417 435.489 606.096 436.591C603.897 437.949 598.955 425.035 596.7 422.626C594.11 419.663 595.315 426.528 594.762 426.867C593.664 427.547 589.764 426.156 591.252 429.798L592.954 432.55C592.405 432.89 592.535 434.332 593.005 436.322C593.345 436.871 595.986 443.605 595.986 443.605C595.437 443.945 587.691 428.96 585.571 427.989C583.112 426.468 581.722 430.37 580.072 431.389C578.421 432.412 571.852 430.394 575.303 439.667C572.452 433.826 569.203 439.64 567.762 439.77C567.213 440.11 563.392 436.385 564.201 438.929C564.252 442.701 568.283 445.532 569.096 448.072C571.868 456.247 559.882 439.32 559.803 441.65C559.803 441.65 561.974 446.393 563.254 450.923C565.085 455.118 566.368 459.648 565.685 458.546C563.775 456.685 556.609 435.26 555.824 442.59C555.322 446.705 552.184 444.083 553.044 450.398C552.965 452.728 551.706 458.072 549.795 456.208C547.833 450.576 542.231 446.437 545.216 453.719C539.459 438.261 536.262 447.847 541.544 461.314C539.503 458.012 538.224 453.479 536.522 450.73C534.142 446.879 533.723 448.66 532.622 449.34C531.52 450.019 526.731 448.419 529.582 454.26C527.88 451.512 525.551 451.433 524.453 452.112C522.251 453.475 523.064 456.014 525.496 463.636C524.394 464.32 521.492 454.703 519.582 452.843C520.731 455.935 520.442 459.158 519.894 459.497C516.522 447.894 515.132 451.796 512.929 453.155C511.832 453.834 513.344 467.353 513.944 470.785C514.335 475.106 515.958 480.189 516.558 483.621C517.158 487.049 515.326 482.858 514.647 481.76C513.024 476.678 512.164 470.362 511.094 464.94C511.433 465.493 509.629 455.197 509.42 456.089C509.211 456.978 509.001 457.866 508.453 458.21C508.322 456.768 507.983 456.219 507.639 455.667C507.3 455.118 506.202 455.797 506.119 458.127C506.25 459.569 512.057 478.798 511.717 478.249C509.807 476.385 504.39 461.48 505.223 473.897C507.604 477.748 507.916 484.403 510.087 489.142C512.128 492.444 512.396 479.347 514.019 484.43C515.168 487.523 514.67 491.634 517.6 495.145C518.539 499.126 519.799 493.783 520.691 493.992C522.341 492.973 519.988 483.016 518.915 477.598C518.314 474.166 517.375 470.181 518.133 468.952C518.686 468.613 519.992 467.041 520.806 469.58C521.275 471.571 520.225 476.026 519.807 477.807C519.858 481.579 521.007 484.667 521.95 488.652C519.858 481.579 523.206 483.309 523.159 479.537C524.809 478.514 525.069 481.397 526.088 483.048C527.659 484.355 528.417 483.127 529.519 482.448C530.616 481.764 531.22 485.196 532.029 487.736C534.071 491.038 535.172 490.358 536.609 490.228C537.501 490.437 542.973 493.139 541.141 488.948C538.157 481.666 537.896 478.783 540.908 479.963C542.689 480.382 545.251 489.446 545.279 483.344C544.967 476.689 549.993 487.274 548.709 482.744C548.579 481.302 546.957 476.219 545.677 471.689C544.868 469.146 544.394 467.155 543.376 465.505C542.906 463.514 542.566 462.965 542.566 462.965C543.455 463.174 546.909 472.448 548.058 475.54C550.439 479.391 551.749 477.819 553.372 482.902C552.819 483.242 554.521 485.994 554.521 485.994C555.622 485.311 554.26 483.111 553.921 482.562C552.428 478.921 554.418 478.451 554.971 478.107C554.631 477.558 549.866 469.857 552.539 470.485C555.547 471.666 558.03 483.06 559.941 484.92C563.084 487.542 561.88 480.678 560.261 475.595C558.638 470.512 559.108 472.507 560.758 471.484C560.419 470.935 564.11 473.214 562.748 471.014C560.916 466.824 559.219 464.071 562.697 467.242C566.649 472.404 563.558 473.554 565.859 479.738C567.379 477.274 569.472 484.347 569.843 478.794C570.131 475.576 574.371 477.515 570.837 470.572C572.33 474.213 573.901 475.524 573.85 471.753C573.25 468.321 571.757 464.679 571.157 461.247C569.404 454.727 574.639 464.418 575.109 466.409C576.811 469.162 580.601 478.984 581.781 475.971C582.2 474.189 582.571 468.64 585.891 476.472C583.929 470.84 576.949 454.624 582.338 459.655C585.48 462.274 589.87 475.532 589.902 469.426C590.111 468.538 588.228 460.576 589.799 461.883C591.371 463.194 592.989 468.277 594.561 469.588C596.132 470.896 595.192 466.915 595.401 466.026C596.499 465.343 593.1 459.841 592.63 457.851C592.03 454.418 594.489 455.939 593.759 451.069C593.968 450.177 592.085 442.215 594.596 447.507C597.19 450.469 599.649 451.986 600.956 450.418C602.058 449.734 601.458 446.302 601.876 444.525C602.847 442.4 607.502 458.538 610.301 460.611C612.212 462.471 608.418 452.645 608.078 452.096C607.608 450.106 607.348 447.223 609.049 449.975C608.37 448.873 603.475 439.731 603.475 439.731C604.916 439.6 612.449 455.477 614.28 459.667C615.931 458.648 610.621 451.287 611.927 449.715C615.721 459.537 615.488 450.552 617.399 452.416C618.971 453.723 620.25 458.257 621.351 457.574C622.453 456.895 621.77 455.793 621.983 454.904C622.95 452.783 624.861 454.644 625.962 453.964L630.021 450.69C628.11 448.83 625.26 442.989 625.339 440.659C624.738 437.227 630.048 444.588 631.071 446.239C633.791 450.639 636.46 451.271 636.543 448.937C636.282 446.058 632.251 443.226 630.68 441.915C628.769 440.054 631.679 433.692 634.529 439.533C640.783 450.88 633.278 428.901 633.827 428.558C635.189 430.761 638.718 437.704 639.271 437.361C639.819 437.021 641.628 431.338 643.25 436.421C644.139 436.63 643.827 429.979 646.207 433.83C647.23 435.481 651.73 440.303 650.581 437.211C648.75 433.016 641.786 426.678 640.897 426.468C640.897 426.468 639.614 421.934 639.827 421.046C640.585 419.814 643.645 424.766 645.007 426.966C647.597 429.928 649.638 433.23 652.571 436.741C652.101 434.75 651.288 432.207 650.818 430.216C647.498 422.385 650.558 427.337 653.487 430.848C661.13 438.289 656.345 420.71 663.021 430.276C663.7 431.374 659.227 420.449 662.157 423.96C662.5 424.513 669.851 435.177 668.229 430.094C667.419 427.55 663.128 421.84 663.886 420.611C664.439 420.268 667.917 423.439 668.26 423.992C668.26 423.992 664.229 421.16 666.61 425.011C668.308 427.764 671.19 427.503 671.738 427.159C672.291 426.82 674.281 426.35 672.579 423.601C669.989 420.639 666.377 416.026 665.276 416.709C663.708 415.398 662.216 411.757 661.197 410.106C660.384 407.562 664.206 411.287 665.437 412.045C668.576 414.667 672.737 418.937 676.689 424.099C675.331 421.899 673.629 419.146 674.178 418.806C674.727 418.467 678.339 423.08 679.571 423.838C682.71 426.46 681.979 421.587 682.058 419.257C681.798 416.374 681.877 414.043 680.049 409.853C679.366 408.751 675.627 402.701 678.426 404.77C679.997 406.081 687.348 416.745 687.139 417.633C687.348 416.745 682.927 409.592 683.136 408.7C682.587 409.039 687.297 412.973 688.189 413.182C689.078 413.392 691.62 412.582 688.687 409.071C688.556 407.63 689.946 403.727 687.905 400.426C688.063 395.761 692.145 402.365 696.389 404.304C700.29 405.694 693.744 397.574 691.885 399.486C693.195 397.914 690.554 391.18 685.714 385.809C688.643 389.32 690.684 392.621 694.506 396.342C696.417 398.202 698.537 399.174 700.448 401.034C694.924 394.561 695.686 393.331 697.885 391.969C700.084 390.608 705.138 395.09 709.038 396.48C705.556 393.308 709.615 390.036 710.037 388.255C710.456 386.474 704.853 382.333 705.955 381.652C706.504 381.312 711.293 382.912 715.063 382.862C718.837 382.811 720.827 382.34 715.225 378.199C716.322 377.519 725.564 380.168 721.533 377.337C717.163 373.957 715.252 372.096 711.77 368.925C716.693 371.966 720.724 374.797 724.546 378.518C720.385 374.246 716.563 370.526 712.741 366.805C713.973 367.565 724.494 374.746 724.155 374.196C723.555 370.764 712.611 365.364 707.479 363.214C707.349 361.773 719.524 367.933 722.532 369.113C728.004 371.814 722.402 367.673 726.172 367.622C727.613 367.492 731.305 369.772 730.282 368.121C729.263 366.471 725.572 364.19 726.674 363.51C727.771 362.829 728.533 361.598 729.97 361.468C731.411 361.338 741.155 359.875 738.691 358.355C739.031 358.905 729.449 355.705 729.449 355.705C721.991 353.476 720.211 353.056 722.959 351.355C724.06 350.674 719.607 349.625 718.04 348.314C716.938 348.995 709.398 349.096 707.068 349.017Z" fill="#FBBC04"/>
<path d="M698.118 400.868C698.458 401.421 699.685 402.179 700.368 403.281C699.685 402.179 699.346 401.63 698.118 400.868Z" fill="#FBBC04"/>
<path d="M493.695 490.864C492.463 490.101 490.682 489.683 492.305 494.766C493.584 499.296 496.336 497.593 497.437 496.914L494.374 491.961C493.694 490.864 493.695 490.864 493.695 490.864Z" fill="#FBBC04"/>
<path d="M495.831 459.876C493.111 455.473 494.441 463.778 492.609 459.584C489.68 456.073 489.151 466.29 487.291 468.202C486.431 461.887 484.65 461.468 484.018 464.138C483.051 466.263 483.782 471.132 482.941 474.695C483.182 467.7 475.566 454.158 480.3 467.961C482.471 472.704 479.249 472.416 478.31 468.431C476.687 463.352 476.64 459.58 474.097 460.39C470.828 456.33 475.609 473.905 476.083 475.895C476.683 479.327 477.145 497.297 479.056 499.158C480.627 500.469 479.636 492.716 482.017 496.567C483.035 498.218 485.128 505.287 485.625 501.176C485.025 497.744 483.067 492.112 482.806 489.233C482.885 486.902 483.095 486.01 482.625 484.019C483.355 488.893 485.448 495.966 485.815 490.413C485.894 488.079 484.982 477.996 484.721 475.113L487.516 493.162C488.618 492.483 486.525 485.41 487.832 483.838C488.803 481.717 490.505 484.47 491.946 484.339C494.275 484.418 495.242 482.297 497.966 486.697C498.646 487.799 500.817 492.538 501.705 492.752C501.156 493.091 499.147 483.688 499.013 482.246C500.663 481.223 501.867 488.087 503.146 492.621C502.207 488.636 503.387 485.627 503.805 483.846C504.777 481.725 504.986 480.832 503.024 475.2C501.062 469.568 498.211 463.727 495.831 459.876Z" fill="#FBBC04"/>
<path d="M474.437 461.014C475.538 460.334 472.186 458.604 474.437 461.014Z" fill="#FBBC04"/>
<path d="M471.606 465.023C469.305 458.838 471.291 474.348 471.342 478.119C471.212 476.678 467.868 458.969 467.027 462.531C466.739 465.754 468.148 471.725 466.837 473.297C465.74 473.976 464.638 474.66 463.411 473.897C463.067 473.348 463.359 470.126 463.229 468.684C462.155 463.262 460.505 464.285 461.026 470.047C459.747 465.517 459.348 477.172 457.516 472.977C456.707 470.438 457.078 464.885 457.497 463.104C455.507 463.574 455.527 473.451 455.499 479.553C454.429 474.13 454.038 469.81 453.857 464.597C453.699 469.257 452.119 483.925 450.679 484.055C450.497 478.842 449.455 467.318 447.725 470.671C446.758 472.792 450.631 480.284 449.241 484.186C446.75 488.767 447.856 472.108 446.206 473.131C445.657 473.471 445.211 481.354 443.928 476.824C443.928 476.824 443.537 472.503 443.197 471.95C442.779 473.732 442.487 476.954 442.408 479.284C442.305 471.741 441.496 469.202 440.003 465.56C439.534 463.57 439.245 466.788 438.957 470.011C438.906 466.24 437.753 463.147 436.316 463.277C435.424 463.068 434.926 467.179 433.955 469.3C432.984 471.421 432.017 473.546 431.124 473.333C430.236 473.123 430.813 466.682 430.895 464.352C430.134 465.58 428.953 468.593 427.986 470.714C428.116 472.156 427.907 473.044 427.907 473.044C426.486 483.048 428.108 488.131 428.132 498.005C427.942 508.771 430.303 502.748 432.972 503.376C434.753 503.799 438.365 508.408 439.624 503.068C441.093 496.832 439.94 493.743 439.001 489.762C439.549 489.419 442.566 474.624 442.435 473.183C442.487 476.954 441.65 480.517 442.25 483.949C442.171 486.279 442.98 488.818 442.98 488.818C443.241 491.702 440.931 501.496 442.921 501.026C444.915 500.556 451.796 509.229 451.512 496.472C451.642 497.91 455.073 497.31 455.621 496.97C456.723 496.291 457.793 501.713 459.364 503.025C460.935 504.332 462.925 503.862 464.654 500.509C467.224 493.597 467.035 504.363 469.577 503.55C468.373 496.69 466.932 496.816 467.722 489.486C467.801 487.152 468.669 477.487 470.501 481.682C472.803 487.863 471.255 496.429 471.567 503.08C472.664 502.401 477.457 504 477.276 498.787C476.885 494.466 474.611 482.179 475.242 479.51C475.191 475.738 474.121 470.315 471.606 465.023Z" fill="#FBBC04"/>
<path d="M424.989 495.354C423.469 497.814 424.073 501.246 425.51 501.116C427.504 500.646 426.43 495.224 424.989 495.354Z" fill="#FBBC04"/>
<path d="M420.785 471.318L419.892 471.108C417.954 475.35 420.255 481.531 420.785 471.318Z" fill="#FBBC04"/>
<path d="M418.108 486.681C418.005 479.134 417.772 470.153 418.222 462.266C417.121 462.949 414.424 468.423 413.374 472.874C411.906 479.106 416.256 472.613 415.834 474.395C414.997 477.957 412.585 480.208 411.985 476.776C411.933 473.004 413.402 466.772 411.704 464.019C407.701 455.086 409.865 475.805 408.554 477.376C406.904 478.399 408.143 463.178 406.572 461.871C404.322 459.458 404.531 458.569 403.323 467.685C401.333 468.155 402.802 461.922 401.44 459.719C400.421 458.068 398.092 457.989 397.512 464.434C399.691 453.198 391.411 464.403 389.58 460.212C389.58 460.212 389.58 460.212 389.239 459.663C388.4 463.226 386.772 474.118 386.194 480.564C384.935 485.907 386.925 485.433 386.505 487.215C386.635 488.656 384.667 499.004 386.606 494.758C388.126 492.297 387.316 489.758 388.755 489.628C389.646 489.837 390.196 489.497 391.086 489.707C392.186 489.027 393.525 481.35 395.044 478.889C399.264 470.955 392.367 494.237 392.027 493.688C392.157 495.129 396.244 485.753 396.296 489.525C396.686 493.846 395.348 501.519 398.1 499.821C398.649 499.478 403.129 494.426 401.977 491.334C401.637 490.785 399.016 493.929 399.438 492.147C401.037 487.353 404.807 487.301 405.826 488.952C406.509 490.054 405.747 491.282 404.989 492.515C403.469 494.975 403.808 495.528 403.098 500.528C404.827 497.175 406.426 492.384 407.476 487.933C407.397 490.263 405.692 503.49 407.208 501.03C408.179 498.909 409.099 493.012 410.749 491.993C411.298 491.654 411.349 495.425 411.689 495.974C413.52 500.169 414.574 479.738 414.357 496.606C415.561 503.466 416.371 506.01 418.941 499.094C421.511 492.183 420.402 508.838 422.423 502.266C424.101 495.141 425.937 483.356 426.387 475.473C427.914 457.033 420.046 482.436 418.108 486.681Z" fill="#FBBC04"/>
<path d="M389.448 458.791L389.789 459.343C389.789 459.343 390.418 456.67 389.448 458.791Z" fill="#FBBC04"/>
<path d="M335.588 470.042C333.808 469.62 329.459 476.116 330.479 477.767C332.6 478.735 337.708 471.01 335.588 470.042Z" fill="#FBBC04"/>
<path d="M318.256 467.866C319.747 471.508 323.676 466.796 320.666 465.615C319.775 465.406 319.015 466.634 318.256 467.866Z" fill="#FBBC04"/>
<path d="M384.335 482.515C384.754 480.734 386.144 476.832 386.353 475.943C385.963 471.618 383.104 481.757 385.622 471.07C386.462 467.507 386.23 458.522 384.291 462.768C383.111 465.777 381.512 470.572 379.782 473.921C380.622 470.359 383.06 462.006 382.38 460.904C381.49 460.694 377.221 464.857 379.449 457.393C378.4 461.848 376.801 466.638 374.81 467.108C375.231 465.327 378.848 453.964 377.958 453.751C377.958 453.751 373.739 461.69 372.98 462.918C367.741 469.201 374.868 454.904 374.188 453.803C373.848 453.254 370.128 457.077 369.578 457.416C368.478 458.096 366.669 463.779 365.7 465.9C363.92 465.481 368.348 456.658 368.768 454.877C369.528 453.645 366.857 453.017 367.827 450.892C368.326 446.78 368.666 447.333 366.596 450.134C365.287 451.705 364.056 450.943 364.136 448.613C364.346 447.724 365.684 440.051 364.295 443.953C362.985 445.521 360.966 452.096 360.416 452.436C359.316 453.115 360.366 448.664 361.335 446.544C365.424 437.168 358.035 448.585 357.616 450.367C357.275 449.814 360.185 443.451 358.405 443.032C356.624 442.614 356.675 446.382 355.155 448.846C353.636 451.307 355.604 440.963 355.814 440.07C355.683 438.629 353.194 443.214 351.544 444.233C348.794 445.935 347.144 446.954 342.325 451.461C340.465 453.372 337.295 456.852 338.475 453.842C338.764 450.619 342.983 442.685 342.093 442.476C340.313 442.057 343.142 438.025 343.772 435.351C345.451 428.226 334.132 444.356 338.85 432.31C335.601 438.123 332.222 442.495 331.621 439.067C331.361 436.184 336.13 427.91 335.239 427.701C334.009 426.938 327.352 443.23 326.592 444.458C322.373 452.393 318.733 453.886 314.044 459.829C310.114 464.541 316.005 465.461 316.895 465.671C319.566 466.303 321.534 455.955 323.944 453.704C322.634 455.276 320.774 457.187 319.254 459.648C320.984 456.295 323.604 453.155 326.013 450.904C329.523 447.969 326.824 453.443 325.304 455.904C322.815 460.485 321.136 467.61 325.905 459.336C327.974 456.536 333.293 447.918 333.764 449.908C334.234 451.899 326.715 461.875 325.536 464.889C323.597 469.13 327.027 468.53 327.917 468.739C331.477 469.581 331.659 474.794 337.477 462.065C336.768 467.069 340.226 460.363 342.006 460.785C342.006 460.785 339.098 467.148 340.537 467.017C341.428 467.227 348.425 451.488 348.527 459.032C348.657 460.473 346.978 467.594 345.459 470.058C343.389 472.859 344.858 466.626 345.068 465.734C344.937 464.296 343.078 466.208 341.898 469.217C339.959 473.459 339.829 472.017 338.599 471.259C335.899 476.733 338.28 480.584 340.98 475.11C342.76 475.528 341.16 480.323 344.041 480.062C346.031 479.592 349.331 477.551 350.8 471.318C351.429 468.645 352.268 465.082 353.238 462.961C354.548 461.389 361.097 453.538 359.577 455.998C357.638 460.24 356.588 464.691 354.99 469.486C353.39 474.276 352.761 476.95 354.881 477.918C356.112 478.68 354.853 484.024 355.533 485.122C354.512 483.471 372.386 443.51 358.992 478.419C356.633 484.442 357.783 487.535 360.063 483.842C360.823 482.61 362.552 479.257 364.282 475.908C364.701 474.126 366.011 472.554 366.771 471.322C367.531 470.094 367.741 469.201 367.741 469.201C368.631 469.411 360.664 487.274 362.994 487.353C364.593 482.558 368.71 467.081 371.04 467.16C373.58 466.35 367.343 480.856 367.394 484.628C367.524 486.069 369.174 485.051 369.514 485.6C370.744 486.362 369.225 488.822 369.355 490.264C369.695 490.813 372.105 488.562 373.625 486.101C375.694 483.297 377.214 480.836 377.214 480.836C376.794 482.618 373.965 486.65 374.775 489.19C374.906 490.631 376.215 489.059 376.975 487.831C378.285 486.259 382.583 475.994 383.263 477.092C384.284 478.743 381.426 488.878 381.687 491.761C382.077 496.081 384.776 490.607 385.276 486.496C384.805 484.506 383.285 486.966 384.335 482.515Z" fill="#FBBC04"/>
<path d="M323.293 446.437C326.123 442.404 328.691 435.493 326.281 437.744C326.281 437.744 326.281 437.744 325.181 438.423L316.693 450.521C318.213 448.06 319.523 446.488 321.173 445.469C318.973 446.828 316.115 456.966 323.293 446.437Z" fill="#FBBC04"/>
<path d="M305.851 452.704C304.201 453.723 299.171 459.118 300.402 459.876C301.632 460.639 307.631 453.123 305.851 452.704Z" fill="#FBBC04"/>
<path d="M333.958 423.183C333.958 423.183 329.898 426.457 329.348 426.796C327.908 426.927 329.637 423.574 328.197 423.704C327.307 423.495 325.107 424.857 322.907 426.216C321.807 426.895 318.638 430.378 318.638 430.378C318.638 430.378 323.197 422.993 321.546 424.016C319.137 426.267 313.898 432.551 310.938 435.142L297.63 451.745C298.86 452.503 309.129 440.825 308.709 442.606C308.84 444.047 297.34 454.964 299.461 455.935C306.639 445.41 303.861 453.214 308.131 449.051C311.85 445.228 316.489 435.513 318.189 438.262C319.55 440.465 313.84 444.758 311.43 447.01C307.921 449.94 305.482 458.293 303.752 461.646C304.982 462.408 315.881 448.06 317.741 446.149C321.67 441.433 329.058 430.015 331.179 430.987C329.949 430.228 330.158 429.336 333.958 423.183Z" fill="#FBBC04"/>
<path d="M323.015 417.752C322.335 416.65 320.555 416.232 317.255 418.274C314.505 419.976 310.025 425.027 308.166 426.939C306.515 427.961 316.863 413.953 317.073 413.06C317.493 411.279 315.503 411.749 314.403 412.432C312.963 412.563 311.733 411.8 311.052 410.702C310.032 409.052 312.862 405.019 305.162 409.782C304.062 410.462 285.963 425.462 289.003 420.541C289.552 420.201 294.712 416.247 296.362 415.225C298.222 413.313 300.082 411.405 300.502 409.624C303.541 404.699 302.18 402.499 300.269 400.639C299.929 400.086 298.569 397.887 295.819 399.589C291.079 401.761 294.639 402.602 294.639 402.602C295.189 402.259 286.94 407.365 286.39 407.705C282.33 410.975 276.83 414.379 272.77 417.653C269.261 420.584 273.791 419.304 271.381 421.555C267.871 424.486 266.562 426.058 268.892 426.137C271.903 427.318 273.893 426.848 280.912 420.983C282.772 419.071 287.931 415.118 285.051 415.379C281.961 416.528 289.321 411.216 289.871 410.876C290.971 410.193 298.67 405.43 297.701 407.551C297.491 408.443 292.541 411.504 291.441 412.187C288.481 414.778 284.971 417.709 283.452 420.169C283.452 420.169 282.482 422.294 280.963 424.755C279.993 426.875 278.473 429.336 276.143 429.257C275.253 429.048 277.322 426.243 275.122 427.606C273.473 428.629 273.914 436.721 281.223 427.634C284.733 424.703 283.763 426.824 285.753 426.354C288.843 425.201 287.404 425.331 289.813 423.08C288.713 423.763 283.944 432.037 283.184 433.266C281.245 437.511 284.125 437.251 285.695 438.558C284.567 445.343 294.235 430.232 298.844 426.623C299.944 425.939 300.284 426.492 300.625 427.041C300.965 427.59 297.245 431.413 296.695 431.753C293.526 435.236 289.386 440.841 293.576 439.008C297.217 437.515 302.586 432.673 306.436 430.292C308.006 431.603 311.596 426.338 313.926 426.417C314.816 426.627 303.737 435.766 302.977 436.994C300.017 439.589 294.988 444.98 294.358 447.653C293.519 451.216 299.438 446.03 302.268 441.998C303.787 439.537 304.757 437.416 306.277 434.952C307.796 432.491 308.477 433.593 307.717 434.822C312.168 435.872 323.826 420.292 323.015 417.752Z" fill="#FBBC04"/>
<path d="M288.988 394.684C294.488 391.281 280.058 398.688 288.988 394.684Z" fill="#FBBC04"/>
<path d="M287.598 398.549C287.468 397.108 293.098 395.145 294.408 393.575C296.268 391.663 291.738 392.945 289.537 394.306C286.447 395.457 265.968 406.606 271.728 406.085C268.429 408.127 265.679 409.829 265.548 408.387C260.048 411.792 269.369 412.108 270.809 411.977C276.02 411.796 282.75 409.154 290.869 402.609C304.699 391.772 287.309 401.768 287.598 398.549Z" fill="#FBBC04"/>
<path d="M282.661 369.701C285.201 368.89 285.751 368.55 285.071 367.45L284.731 366.899C282.531 368.26 281.771 369.491 282.661 369.701Z" fill="#FBBC04"/>
<path d="M259.026 352.341C259.026 352.341 258.476 352.681 257.586 352.471C255.256 352.392 254.706 352.732 254.706 352.732C250.936 352.783 248.055 353.043 249.076 354.694C249.756 355.795 260.807 352.761 262.796 352.29C262.456 351.74 260.466 352.21 259.026 352.341Z" fill="#FBBC04"/>
<path d="M259.026 352.329C260.466 352.199 253.815 352.51 254.705 352.72C255.596 352.93 257.036 352.8 257.586 352.459C257.586 352.459 258.136 352.119 259.026 352.329Z" fill="#FBBC04"/>
<path d="M239.336 356.162C238.656 355.062 241.406 353.361 240.726 352.26C233.735 352.021 238.996 355.612 239.336 356.162Z" fill="#FBBC04"/>
<path d="M266.52 406.318C264.949 405.007 274.849 398.881 273.069 398.463C271.288 398.044 268.199 399.193 266.209 399.663C266.209 399.663 262.648 398.826 264.638 398.356C262.098 399.166 259.558 399.975 256.808 401.677C262.308 398.273 265.607 396.231 270.217 392.62C266.237 393.562 254.977 397.487 256.707 394.134C258.226 391.672 265.926 386.908 269.696 386.857C270.246 386.517 273.127 386.257 272.446 385.156C273.206 383.925 271.216 384.396 269.776 384.527C267.786 384.997 262.915 385.728 260.166 387.43C255.766 390.152 249.796 391.564 249.875 389.233C249.745 387.792 260.115 383.658 261.975 381.747C263.074 381.066 258.964 380.567 256.974 381.038C254.224 382.739 252.364 384.65 249.824 385.461C243.094 388.104 242.833 385.222 249.564 382.579C247.023 383.39 243.933 384.542 244.693 383.311C245.453 382.08 250.743 379.568 253.283 378.757C261.663 375.094 270.593 371.09 279.313 367.977C273.133 370.279 265.042 370.721 260.643 373.443C258.443 374.804 256.033 377.056 252.053 377.997C248.963 379.148 253.232 374.985 253.782 374.645C257.632 372.263 269.652 367.108 266.432 366.818C264.652 366.399 253.442 374.095 252.892 374.435C243.883 380.77 246.582 375.297 245.561 373.646C244.881 372.546 239.33 372.177 241.74 369.925C242.841 369.245 249.02 366.942 251.56 366.131C254.65 364.98 267.011 360.375 266.33 359.275C265.99 358.725 249.99 364.821 250.2 363.931C250.2 363.931 253.84 362.439 251.509 362.36C250.07 362.49 244.78 365.002 242.45 364.923C232.159 366.726 242.189 362.041 247.269 360.42C242.739 361.701 234.438 363.033 241.719 360.051C248.449 357.408 262.799 352.333 270.209 350.79L265.208 350.081C261.438 350.132 257.118 350.523 252.457 350.364C242.087 354.498 255.837 345.991 255.837 345.991C255.837 345.991 252.747 347.142 250.207 347.953C247.667 348.764 245.336 348.685 247.536 347.323C249.186 346.303 242.196 346.064 242.065 344.623C241.385 343.523 248.245 342.321 248.115 340.881C248.795 341.981 226.984 344.826 233.924 341.293C237.774 338.911 251.285 337.398 257.255 335.986C254.035 335.696 250.814 335.407 247.594 335.117C245.814 334.698 240.813 333.988 237.383 334.589C236.833 334.929 238.403 336.24 237.303 336.92C233.453 339.302 233.692 332.309 233.692 332.309C233.352 331.759 230.971 327.907 237.072 327.936C246.393 328.254 244.822 326.944 241.471 325.214C238.12 323.484 232.649 320.784 234.85 319.423C237.049 318.061 249.041 319.01 252.811 318.959C259.802 319.198 270.223 318.836 275.013 320.435C278.914 321.825 275.694 321.535 269.043 321.847C264.383 321.688 260.873 324.62 259.433 324.75C263.884 325.8 271.084 325.148 276.634 325.517C273.754 325.778 248.933 327.444 256.813 327.892C263.254 328.471 271.005 327.479 275.455 328.529C278.465 329.709 283.047 332.199 274.406 332.981C282.156 331.989 278.306 334.371 274.326 335.312C272.886 335.443 263.616 338.896 269.926 338.034C274.797 337.303 281.447 336.992 278.698 338.693C275.738 341.285 279.928 339.453 280.948 341.104C273.458 344.977 283.039 348.177 283.51 350.168C283.85 350.718 283.981 352.158 281.231 353.86C280.131 354.54 273.611 356.292 273.27 355.742C273.611 356.292 281.021 354.75 282.801 355.17C286.021 355.459 282.722 357.501 280.862 359.412C272.272 363.966 281.542 360.513 283.532 360.042C284.972 359.912 285.312 360.462 285.103 361.353C284.893 362.243 280.912 363.184 280.362 363.524C279.812 363.865 287.563 362.873 287.353 363.763C286.384 365.884 279.234 370.308 276.614 373.45C271.795 377.953 284.784 370.677 287.874 369.526C294.264 366.333 286.145 372.878 290.675 371.596C281.195 375.94 294.156 374.767 290.856 376.809C286.456 379.531 281.926 380.812 279.307 383.955C277.997 385.525 276.687 387.096 275.927 388.327C279.777 385.945 284.386 382.332 288.236 379.951C288.786 379.61 292.846 376.338 293.736 376.548C295.177 376.418 294.076 377.098 291.876 378.459C292.217 379.01 294.547 379.089 292.347 380.45C288.497 382.832 287.947 383.172 288.628 384.273C290.068 384.142 293.158 382.991 289.858 385.033C292.868 386.213 290.197 385.583 296.588 382.39C294.388 383.751 297.659 387.812 287.499 391.056C283.099 393.778 281.029 396.579 277.049 397.523L272.099 400.583C269.27 404.616 269.27 404.616 266.52 406.318ZM268.784 376.773C270.094 375.202 264.124 376.614 261.374 378.315C259.724 379.336 258.624 380.017 256.974 381.038C261.504 379.756 265.825 379.365 268.784 376.773Z" fill="#FBBC04"/>
<path d="M258.208 307.979C261.428 308.268 264.989 309.108 266.639 308.087C265.959 306.987 252.867 306.719 258.208 307.979Z" fill="#FBBC04"/>
<path d="M269.28 314.851C267.16 313.881 263.39 313.932 260.929 312.411C256.348 309.921 262.919 311.941 266.69 311.89C269.02 311.969 278.891 311.947 272.66 310.478C268.209 309.428 261.769 308.849 257.108 308.69C246.817 310.493 250.747 305.78 251.637 305.99C249.307 305.91 245.536 305.961 241.976 305.121C241.086 304.911 240.196 304.702 239.856 304.152C236.845 302.971 232.394 301.922 230.404 302.392C227.314 303.544 232.105 305.143 235.875 305.093C236.766 305.302 248.547 307.141 244.226 307.532C240.796 308.133 235.116 306.323 231.685 306.924C228.255 307.526 230.716 309.046 232.286 310.356C235.087 312.426 233.227 314.338 234.588 316.539C235.738 319.63 249.93 319.216 256.03 319.245C263.571 319.144 276.191 317.42 269.28 314.851Z" fill="#FBBC04"/>
<path d="M239.854 304.099C240.744 304.308 241.634 304.519 241.974 305.069C244.645 305.698 235.063 302.499 239.854 304.099Z" fill="#FBBC04"/>
<path d="M249.578 276.793C246.778 274.722 235.076 270.552 238.216 273.173C241.017 275.243 249.159 278.573 249.578 276.793Z" fill="#FBBC04"/>
<path d="M255.97 273.626C252.7 269.564 240.238 266.626 241.598 268.826C243.299 271.578 261.572 277.767 255.97 273.626Z" fill="#FBBC04"/>
<path d="M255.97 273.615C258.771 275.685 254.27 270.864 255.97 273.615Z" fill="#FBBC04"/>
<path d="M313.342 201.588C312.14 194.725 306.749 189.693 309.18 197.317C311.352 202.058 314.413 207.01 313.342 201.588Z" fill="#FBBC04"/>
<path d="M357.63 228.994L358.18 228.653C359.57 224.751 357.268 218.569 357.63 228.994Z" fill="#FBBC04"/>
<path d="M274.177 307.971C272.947 307.211 265.906 303.2 273.917 305.089C279.598 306.899 277.897 304.148 278.107 303.258C278.186 300.927 278.606 299.146 276.015 296.185C273.424 293.224 280.415 293.462 280.495 291.131C280.024 289.14 265.862 283.45 275.993 286.31C282.014 288.67 277.383 282.408 279.503 283.378C284.974 286.078 283.223 279.556 283.982 278.325C284.402 276.544 287.622 276.833 287.702 274.502C286.812 274.292 284.482 274.213 282.571 272.352C280.661 270.492 282.651 270.021 283.201 269.681C283.41 268.79 280.74 268.16 280.61 266.719C280.82 265.829 283.83 267.009 286.29 268.529L285.531 269.761C291.212 271.57 291.761 271.23 290.611 268.139C289.46 265.047 294.172 268.978 294.932 267.748C295.351 265.967 290.64 262.035 289.149 258.394C287.448 255.643 294.83 260.204 296.95 261.174C299.961 262.354 299.83 260.913 299.36 258.922C299.23 257.482 298.419 254.941 300.409 254.47C302.399 253.999 302.739 254.55 298.028 250.619C294.887 247.998 301.118 249.468 301.668 249.127C303.528 247.216 301.617 245.356 308.03 252.037C310.28 254.448 307.088 248.056 306.068 246.405C302.667 240.903 300.546 239.933 301.516 237.812C304.526 238.992 301.255 234.93 298.114 232.31C295.864 229.899 284.61 217.846 285.92 216.275C287.23 214.704 295.603 227.018 297.514 228.878C298.534 230.529 305.076 238.652 304.526 238.992C308.138 243.603 314.89 250.836 309.448 242.032C311.908 243.552 313.608 246.304 314.368 245.073C312.878 241.432 313.977 240.751 314.737 239.52C316.387 238.499 319.188 240.57 318.797 236.248C318.667 234.807 318.536 233.366 316.835 230.615C319.557 235.017 322.828 239.078 324.608 239.498C324.608 239.498 324.268 238.948 323.248 237.297C322.567 236.197 321.547 234.546 320.186 232.346C318.146 229.044 315.765 225.193 315.084 224.092C318.826 230.145 322.908 236.747 324.557 235.726C325.657 235.046 328.328 235.675 326.366 230.043C328.407 233.344 329.978 234.655 330.868 234.865C332.648 235.285 331.288 233.084 329.797 229.442C329.797 229.442 333.408 234.054 333.957 233.714C334.508 233.373 332.286 224.86 331.816 222.869C331.685 221.428 330.614 216.006 329.514 216.686C328.414 217.367 327.263 214.276 326.713 214.616C328.363 213.595 329.803 213.465 331.845 216.766C333.885 220.067 334.616 224.939 335.977 227.14C338.018 230.441 334.985 219.386 334.855 217.946C334.594 215.064 338.126 222.007 338.806 223.107C341.867 228.059 344.538 228.689 342.526 219.285C342.396 217.844 346.636 219.784 346.817 224.997C346.897 222.666 346.166 217.793 346.716 217.453C347.815 216.773 348.757 220.755 349.777 222.405C351.138 224.606 348.655 213.211 348.185 211.22C348.445 214.101 350.095 213.081 350.826 217.953C350.956 219.393 352.288 227.697 352.498 226.807C352.708 225.916 352.918 225.025 352.787 223.585L353.887 222.904C354.228 223.455 354.438 222.564 354.097 222.014C354.597 217.902 355.175 211.459 354.994 206.246C354.943 202.475 354.213 197.602 355.652 197.472C355.834 202.684 356.014 207.897 356.746 212.769C356.797 216.541 357.766 214.419 358.237 216.41C358.707 218.401 358.338 223.954 359.228 224.164C359.568 224.714 360.459 224.924 360.878 223.143C361.168 219.922 359.546 214.84 360.176 212.168C360.805 209.497 361.746 213.479 361.877 214.919C362.868 222.673 361.219 223.693 364.099 223.432C367.529 222.832 367.376 211.516 366.805 201.982C366.283 196.219 366.862 189.776 366.891 183.673C367.499 171.127 363.852 188.596 363.852 188.596C363.852 188.596 363.829 178.722 364.039 177.831C362.599 177.961 363.12 183.724 361.601 186.185C359.531 188.987 357.411 188.017 355.001 190.269C354.241 191.499 352.302 195.742 351.441 189.429C350.97 187.438 350.318 180.235 351.759 180.104C349.219 180.916 345.658 180.076 343.929 183.427C342.409 185.889 345.101 196.393 345.832 201.266C345.101 196.393 343.372 199.745 343.162 200.636C342.612 200.976 341.07 193.563 341.07 193.563C340.47 190.132 335.736 176.326 335.628 184.76C335.809 189.972 338.53 194.374 339.811 198.906C340.412 202.337 339.363 206.79 338.212 203.698C337.872 203.148 337.691 197.936 336.461 197.175C335.571 196.966 335.622 200.738 333.921 197.987C332.56 195.786 332.09 193.795 331.279 191.254C332.56 195.786 340.666 221.196 335.484 215.275C333.914 213.964 326.988 185.542 326.228 186.773C324.708 189.234 328.971 201.049 329.572 204.481C329.441 203.04 323.659 193.687 323.319 193.136C319.498 189.416 328.001 203.17 326.981 201.52C327.791 204.06 325.801 204.531 326.482 205.632C327.972 209.273 326.742 208.513 325.642 209.194C324.282 206.993 318.579 195.308 321.929 197.038C320.648 192.506 314.786 185.485 315.308 191.247C316.248 195.229 321.612 206.363 321.322 209.585C321.322 209.585 320.982 209.034 320.852 207.594C320.171 206.493 319.701 204.502 318.68 202.852C317.189 199.211 315.489 196.459 314.598 196.25C312.058 197.06 317.762 208.745 319.593 212.936C318.493 213.617 316.871 208.535 315.431 208.665C313.991 208.795 313.441 209.136 311.321 208.166C309.2 207.196 306.74 205.675 304.699 202.374C302.788 200.514 301.638 197.423 300.328 198.994C299.568 200.224 300.379 202.766 297.918 201.245C296.898 199.595 296.558 199.044 296.348 199.935C295.588 201.166 295.849 204.047 295.769 206.378C295.899 207.819 296.761 214.132 294.85 212.271C293.96 212.061 291.109 206.219 291.109 206.219C291.789 207.32 296.471 217.353 297.361 217.563C294.56 215.493 297.202 222.226 296.522 221.125C293.721 219.055 289.09 212.792 287.049 209.491C288.749 212.242 289.43 213.342 290.45 214.993C288.619 210.801 281.969 211.113 281.419 211.453C279.429 211.924 274.088 210.665 280.71 216.456C287.462 223.688 282.201 220.097 286.963 227.8C287.643 228.9 290.704 233.852 288.244 232.332C286.123 231.362 285.312 228.821 284.292 227.171C281.151 224.55 285.023 232.043 281.202 228.321C278.061 225.701 276.021 222.4 274.921 223.08C273.481 223.211 270.759 218.809 268.899 220.72C269.71 223.261 270.39 224.362 267.38 223.182C270.521 225.803 281.094 236.756 282.874 237.176C286.094 237.465 295.097 247.108 289.626 244.408C279.994 237.436 293.577 249.569 291.587 250.039C290.487 250.72 287.897 247.759 285.436 246.239C281.955 243.068 285.515 243.908 283.265 241.497C282.925 240.947 268.031 230.385 268.581 230.045C268.031 230.385 277.244 239.137 273.553 236.857C271.433 235.887 269.862 234.577 268.082 234.157C271.223 236.777 270.384 240.34 267.923 238.819C265.122 236.749 260.621 231.927 258.971 232.948C263.002 235.779 258.891 235.279 261.352 236.799C262.922 238.11 265.723 240.18 266.953 240.94C267.503 240.6 268.394 240.81 268.734 241.36C271.875 243.981 278.757 252.653 281.008 255.064C278.207 252.994 273.285 249.954 270.825 248.433C270.405 250.214 265.694 246.283 265.144 246.624C264.044 247.304 280.848 259.727 278.648 261.088C279.068 259.307 264.855 249.845 260.274 247.355C254.123 243.554 257.394 247.616 261.425 250.446C257.734 248.166 243.311 239.594 251.503 246.696C265.507 257.048 248.833 246.066 251.554 250.468C255.505 255.629 260.846 256.889 261.816 254.768C262.235 252.987 272.338 261.949 274.799 263.469C271.788 262.289 267.337 261.24 263.987 259.51C260.086 258.12 256.945 255.5 253.045 254.109C250.034 252.93 247.154 253.19 245.583 251.88L255.976 257.62C255.976 257.62 247.285 254.631 246.944 254.08C243.384 253.241 246.865 256.411 248.435 257.722C246.315 256.752 241.365 259.815 241.025 259.265C247.516 263.615 256.077 265.164 262.779 268.624C264.899 269.594 264.139 270.825 263.589 271.165C263.039 271.505 259.688 269.776 258.798 269.566C253.798 268.856 263.85 274.047 265.08 274.807C265.42 275.357 266.231 277.898 265.34 277.688C263.56 277.268 260.289 273.207 256.048 271.267C253.928 270.297 242.016 267.018 241.676 266.468C243.247 267.778 257.539 274.908 260.21 275.538C263.01 277.608 259.58 278.21 256.23 276.479C252.329 275.09 239.736 270.71 240.887 273.801C241.568 274.902 243.478 276.762 241.489 277.233C240.388 277.913 237.588 275.843 237.038 276.183C234.498 276.994 246.33 282.604 247.9 283.915C249.131 284.675 241.93 285.326 240.49 285.457C240.28 286.347 233.29 286.108 240.751 288.338C246.091 289.597 251.982 290.517 252.452 292.508C246.221 291.039 228.969 286.499 234.02 290.981C233.941 293.312 254.703 294.918 258.394 297.199C259.284 297.409 239.072 295.462 238.731 294.912C239.752 296.562 257.424 299.32 261.324 300.71C267.186 307.732 279.989 311.221 274.177 307.971Z" fill="#FBBC04"/>
<path d="M416.702 217.536C418.692 217.065 425.423 214.423 424.405 212.772C423.722 211.672 415.131 216.226 416.702 217.536Z" fill="#FBBC04"/>
<path d="M389.697 246.363C392.918 246.653 386.267 246.964 389.697 246.363Z" fill="#FBBC04"/>
<path d="M372.885 192.206C371.445 192.336 370.288 205.222 370.627 205.773C370.627 205.773 375.027 203.05 372.118 209.414C371.149 211.535 370.888 208.654 370.049 212.216C369.13 218.109 368.891 225.102 369.152 227.983C369.753 231.415 371.192 231.284 373.262 228.483C374.022 227.252 378.4 214.655 378.031 220.208C377.952 222.539 376.012 226.782 375.383 229.453C374.753 232.124 375.853 231.444 376.403 231.104C376.953 230.763 378.682 227.411 380.332 226.391C381.982 225.37 381.012 227.491 380.253 228.722C379.833 230.502 377.134 235.976 383.813 229.561C384.913 228.88 392.902 220.895 390.283 224.038C388.213 226.839 384.913 228.881 382.294 232.023C383.603 230.452 389.994 227.259 383.524 232.783C380.564 235.374 386.274 231.081 386.614 231.632C387.844 232.391 382.685 236.344 382.475 237.235C382.265 238.126 387.765 234.723 387.005 235.953C385.145 237.865 382.185 240.457 383.416 241.217C383.756 241.767 388.286 240.486 388.836 240.145C389.516 241.246 387.657 243.157 388.337 244.257C389.017 245.358 385.717 247.399 390.038 247.008C390.928 247.218 392.367 247.088 394.358 246.617C394.906 246.277 392.577 246.198 393.887 244.626C396.086 243.265 398.838 241.564 401.586 239.863C405.988 237.141 412.036 233.397 417.326 230.885C420.966 229.394 424.267 227.352 425.577 225.781C426.884 224.21 418.716 226.983 417.614 227.664C411.645 229.075 420.236 224.522 419.004 223.762C418.116 223.552 415.025 224.703 414.476 225.043C416.335 223.132 420.733 220.409 420.263 218.418C420.263 218.418 403.714 224.855 401.175 225.666C393.763 227.208 406.884 221.373 406.205 220.272C405.865 219.722 400.915 222.785 399.474 222.915C398.581 222.705 400.994 220.453 402.091 219.773C405.052 217.181 407.674 214.039 410.844 210.557C409.403 210.687 398.822 215.712 399.371 215.371C400.891 212.91 403.303 210.658 406.943 209.167C409.691 207.465 413.122 206.865 413.88 205.634C414.642 204.403 411.42 204.113 409.091 204.034C406.762 203.954 404.981 203.534 408.36 199.162L399.742 209.818C397.622 208.848 406.501 201.073 401.081 202.145C398.538 202.956 397.989 203.296 395.159 207.328C394.06 208.009 392.49 206.699 391.6 206.489C394.61 207.669 401.108 196.042 394.508 200.125C392.858 201.146 395.009 196.013 394.328 194.913C392.417 193.052 390.347 195.854 388.567 195.434C387.677 195.224 386.425 184.589 384.196 192.053C383.566 194.725 382.438 201.508 381.678 202.739C380.918 203.97 379.637 199.438 379.348 202.659C379.138 203.55 379.608 205.541 378.849 206.771C378.089 208.002 376.916 195.036 376.995 192.705C378.435 192.575 379.977 199.988 381.945 189.643C381.605 189.093 377.914 186.812 377.024 186.602C375.584 186.733 374.274 188.303 374.433 183.641C373.543 183.431 373.543 183.431 372.233 185.003C367.964 189.165 371.785 192.886 372.885 192.206Z" fill="#FBBC04"/>
<path d="M432.641 297.434C432.98 297.984 429.423 297.144 432.641 297.434Z" fill="#FBBC04"/>
<path d="M424.578 233.928C424.709 235.369 418.578 241.443 417.22 239.242C421.827 235.629 401.507 242.117 407.346 239.264C410.986 237.773 415.178 235.941 414.156 234.29C413.816 233.74 413.477 233.19 410.938 234.001C402.008 238.005 404.049 241.305 399.647 244.028C396.9 245.729 387.838 248.292 388.518 249.393C388.308 250.283 389.538 251.043 390.219 252.144C391.449 252.904 396.11 253.063 393.909 254.424C392.259 255.445 391.159 256.125 395.478 255.734C395.139 255.184 397.389 257.595 395.06 257.515C395.609 257.175 401.369 256.653 401.369 256.653C400.271 257.334 393.07 257.986 391.42 259.006C390.87 259.347 394.981 259.846 395.869 260.056C398.202 260.136 406.292 259.694 402.94 257.964C409.462 256.212 403.07 259.405 406.501 258.803C407.393 259.014 409.932 258.202 412.47 257.392C415.013 256.581 417.002 256.11 417.002 256.11C418.021 257.761 404.851 259.824 401.759 260.976C398.672 262.127 396.469 263.488 394.823 264.508C393.721 265.189 391.022 270.662 390.682 270.112C391.232 269.772 399.742 267.549 401.523 267.969C402.541 269.619 393.902 270.402 393.143 271.632C392.383 272.863 396.493 273.363 399.714 273.652C402.936 273.942 402.174 275.172 397.516 275.013C393.193 275.404 395.103 277.265 395.443 277.815C395.782 278.365 394.815 280.486 398.037 280.776C399.474 280.645 406.465 280.884 403.035 281.485C393.975 284.048 394.866 284.258 406.386 283.215C406.517 284.656 399.185 283.867 397.535 284.888C397.875 285.438 393.136 287.61 394.026 287.82C395.257 288.58 409.869 286.386 404.026 289.239C401.278 290.94 395.936 289.681 396.406 291.671C396.536 293.112 402.849 292.25 406.197 293.98C407.089 294.19 415.648 295.739 416.201 295.399C417.298 294.718 419.028 291.366 425.131 291.395C429.79 291.554 425.522 295.717 430.729 295.536C430.86 296.977 437.512 296.665 441.831 296.274C439.502 296.194 436.833 295.565 435.052 295.145C438.953 296.535 443.56 292.922 442.881 291.822C441.519 289.621 437.279 287.681 432.83 286.632C429.269 285.792 419.738 286.364 425.029 283.852C431.547 282.1 428.538 280.92 422.778 281.441C426.209 280.84 429.849 279.349 429.719 277.908C429.849 279.349 435.87 281.709 436.497 279.037C436.367 277.596 439.119 275.895 438.436 274.795C438.305 273.354 417.595 275.519 422.885 273.007C427.626 270.835 445.376 271.262 438.886 266.911C436.426 265.391 431.685 267.563 427.366 267.954C423.043 268.345 422.364 267.245 417.835 268.526C417.152 267.425 426.896 265.963 429.774 265.702C433.544 265.651 437.524 264.71 440.954 264.109C443.497 263.298 439.936 262.459 437.946 262.929C433.074 263.66 425.794 266.643 422.443 264.913C421.215 264.153 422.865 263.132 425.064 261.771C425.743 262.872 435.613 262.85 436.035 261.069C436.035 261.069 432.474 260.229 435.013 259.418C438.104 258.267 436.663 258.397 436.533 256.957C435.854 255.856 440.173 255.465 440.042 254.025C440.252 253.134 431.171 245.822 428.42 247.523C429.521 246.843 432.399 246.582 433.501 245.902C435.151 244.881 433.58 243.571 433.24 243.021C432.222 241.37 435.179 238.778 433.611 237.468C432.928 236.367 423.319 239.271 426.62 237.229C428.27 236.208 433.43 232.255 428.349 233.877C433.639 231.365 427.279 228.455 429.138 226.544C431.756 223.402 417.066 227.927 414.105 230.519C418.218 231.018 424.239 233.378 424.578 233.928Z" fill="#FBBC04"/>
<path d="M446.624 297.893C446.075 298.233 445.183 298.023 443.742 298.153C444.634 298.363 446.075 298.233 446.624 297.893Z" fill="#FBBC04"/>
<path d="M428.917 317.211L428.708 318.102C431.037 318.181 432.135 317.501 431.456 316.401C429.126 316.321 429.126 316.321 428.917 317.211Z" fill="#FBBC04"/>
<path d="M432.367 326.512L432.158 327.403C445.719 329.661 432.446 324.181 432.367 326.512Z" fill="#FBBC04"/>
<path d="M396.379 297.816C395.617 299.046 394.859 300.277 396.43 301.587C396.77 302.138 401.902 304.288 397.24 304.128C399.908 304.758 401.61 307.509 399.829 307.089C398.388 307.22 396.821 305.91 397.37 305.569C394.28 306.721 395.98 309.471 395.562 311.252C395.143 313.033 393.071 315.835 401.081 317.724C402.861 318.144 397.654 318.325 395.874 317.905C403.122 321.025 392.153 321.728 393.173 323.378C393.853 324.479 411.105 329.018 418.227 330.697C418.227 330.697 418.227 330.697 420.347 331.667C423.698 333.397 428.148 334.447 432.258 334.946C432.471 334.056 426.79 332.246 425.558 331.486C422.759 329.416 429.877 331.095 432.759 330.834C435.088 330.914 426.269 326.484 425.376 326.273C422.917 324.753 425.795 324.493 425.116 323.392C425.116 323.392 409.983 319.823 415.534 320.192C417.863 320.272 430.197 321.77 430.327 323.211C440.797 326.621 445.459 326.78 443.288 322.038C442.605 320.937 441.744 314.625 439.076 313.995C433.525 313.626 436.454 317.137 435.696 318.368C434.176 320.829 431.507 320.199 426.715 318.599C423.706 317.42 419.644 320.692 416.296 318.962C415.064 318.202 419.936 317.47 420.485 317.13C421.582 316.449 419.462 315.48 419.676 314.589C420.224 314.249 426.454 315.718 426.873 313.937C427.086 313.047 424.753 312.967 426.403 311.946C427.504 311.266 440.465 310.093 439.786 308.992C439.786 308.992 433.343 308.414 432.455 308.204C428.894 307.364 429.103 306.473 425.542 305.634C422.873 305.004 414.65 304.005 413.422 303.245C411.302 302.275 418.499 301.623 417.95 301.963C417.062 301.754 408.629 301.645 406.64 302.116C403.418 301.826 401.641 301.406 399.308 301.327C404.859 301.696 410.959 301.725 414.942 300.783C414.942 300.783 416.04 300.103 418.029 299.632C420.019 299.162 421.46 299.031 422.692 299.791C423.371 300.892 420.493 301.152 422.613 302.123C424.733 303.093 427.402 303.722 430.074 304.352C430.963 304.562 445.416 307.03 445.286 305.589C444.942 305.039 432.613 303.541 430.832 303.121C432.822 302.651 444.003 301.058 444.212 300.167C444.082 298.726 432.222 299.219 430.232 299.69C430.572 300.24 422.561 298.351 421.12 298.481C416.118 297.772 397.346 295.694 396.379 297.816Z" fill="#FBBC04"/>
<path d="M420.556 330.781C419.667 330.571 419.328 330.02 418.436 329.811C418.775 330.361 422.676 331.751 420.556 330.781Z" fill="#FBBC04"/>
<path d="M408.645 327.46C405.897 329.161 405.214 328.061 397.204 326.171C391.863 324.912 394.114 327.322 393.904 328.213C394.165 331.094 392.775 334.996 405.577 338.486C405.159 340.266 399.008 336.466 396.675 336.386C396.256 338.167 407.618 341.787 412.068 342.836C418.301 344.305 422.281 343.364 413.588 340.375C416.6 341.554 439.273 345.022 436.13 342.401C427.232 340.302 409.087 335.554 409.928 331.992C412.597 332.621 415.266 333.251 417.39 334.221C422.727 335.48 427.859 337.631 433.54 339.44C442.439 341.539 423.829 334.8 418.278 334.431C421.16 334.17 428.7 334.069 424.247 333.019C420.686 332.18 416.237 331.13 413.777 329.61C412.336 329.74 409.194 327.12 408.645 327.46Z" fill="#FBBC04"/>
<path d="M430.86 354.801C436.41 355.17 432.723 352.89 428.27 351.84L428.061 352.731C428.4 353.281 429.632 354.041 430.86 354.801Z" fill="#FBBC04"/>
</svg>
