<svg width="36" height="36" viewBox="0 0 36 36" fill="none" xmlns="http://www.w3.org/2000/svg">
<path d="M27.5794 18C31.0458 13.133 32.8134 8.10282 30.3553 5.64469C27.8972 3.18657 22.867 4.95422 18 8.42063C13.133 4.95422 8.10282 3.18657 5.64469 5.64469C3.18657 8.10282 4.95422 13.133 8.42063 18C4.95422 22.867 3.18657 27.8972 5.64469 30.3553C6.43641 31.147 7.49391 31.5 8.72579 31.5C11.3245 31.5 14.6995 29.9292 18.007 27.5794C21.3005 29.9292 24.6755 31.5 27.2813 31.5C28.5131 31.5 29.572 31.1456 30.3623 30.3553C32.8134 27.8972 31.0458 22.867 27.5794 18ZM28.7648 7.23516C29.8392 8.30954 29.1136 11.7914 26.1605 16.1339C25.2262 14.9774 24.2316 13.871 23.1806 12.8194C22.1289 11.7699 21.0225 10.7766 19.8661 9.84376C24.2086 6.89063 27.6905 6.15938 28.7648 7.23516ZM24.7908 18C23.7957 19.2588 22.7269 20.4576 21.5902 21.5902C20.4576 22.7269 19.2588 23.7957 18 24.7908C16.7412 23.7957 15.5424 22.7269 14.4098 21.5902C13.2731 20.4576 12.2043 19.2588 11.2092 18C13.2057 15.4842 15.4842 13.2057 18 11.2092C19.2588 12.2043 20.4576 13.2731 21.5902 14.4098C22.7269 15.5424 23.7957 16.7412 24.7908 18ZM7.23516 7.23516C7.54454 6.92438 8.05501 6.76407 8.7286 6.76407C10.3908 6.76407 13.0444 7.73438 16.1325 9.84376C14.9772 10.7774 13.8713 11.7706 12.8194 12.8194C11.7699 13.8711 10.7766 14.9775 9.84376 16.1339C6.89063 11.7914 6.16079 8.30954 7.23516 7.23516ZM7.23516 28.7648C6.16079 27.6905 6.89063 24.2086 9.84376 19.8661C10.778 21.0226 11.7727 22.129 12.8236 23.1806C13.8746 24.2293 14.9796 25.2225 16.1339 26.1563C11.7914 29.1094 8.30954 29.8406 7.23516 28.7648ZM28.7648 28.7648C27.6905 29.8406 24.2086 29.1136 19.8661 26.1605C21.022 25.2255 22.1283 24.2308 23.1806 23.1806C24.2301 22.1289 25.2234 21.0225 26.1563 19.8661C29.1094 24.2086 29.8392 27.6905 28.7648 28.7648ZM19.6875 18C19.6875 18.3338 19.5885 18.66 19.4031 18.9375C19.2177 19.215 18.9541 19.4313 18.6458 19.5591C18.3374 19.6868 17.9981 19.7202 17.6708 19.6551C17.3434 19.59 17.0428 19.4292 16.8068 19.1932C16.5708 18.9572 16.41 18.6566 16.3449 18.3292C16.2798 18.0019 16.3132 17.6626 16.441 17.3542C16.5687 17.0459 16.785 16.7823 17.0625 16.5969C17.34 16.4115 17.6662 16.3125 18 16.3125C18.4476 16.3125 18.8768 16.4903 19.1932 16.8068C19.5097 17.1232 19.6875 17.5525 19.6875 18Z" fill="#778BFF"/>
</svg>
