<svg width="36" height="36" viewBox="0 0 36 36" fill="none" xmlns="http://www.w3.org/2000/svg">
<path d="M20.6016 26.7617C20.6016 27.6523 20.5488 28.3554 20.4434 28.8711C20.3379 29.3984 20.1973 29.7851 20.0215 30.0312C19.8457 30.2773 19.6465 30.4355 19.4238 30.5058C19.2129 30.5761 18.9668 30.6113 18.6855 30.6113C18.0879 30.6113 17.6309 30.4179 17.3144 30.0312C17.0098 29.6562 16.8574 29.0878 16.8574 28.3261C16.8574 27.5058 16.9277 26.6035 17.0684 25.6191C17.2207 24.6347 17.4375 23.6093 17.7187 22.5429C16.8164 19.8476 15.9375 17.5156 15.082 15.5468C14.2266 13.5664 13.1953 11.2051 11.9883 8.46289C11.7187 7.86523 11.3437 7.44922 10.8633 7.21484C10.3828 6.96875 9.76172 6.82812 9 6.79297V5.65039L14.2207 5.26367L14.4668 5.50977C14.7832 6.33008 15.2109 7.34375 15.75 8.55078C16.2891 9.74609 16.8457 11.0469 17.4199 12.4531C17.8652 13.5313 18.3223 14.791 18.791 16.2324C19.2715 17.6738 19.5527 18.7929 19.6348 19.5898C20.0215 18.5703 20.4902 17.5214 21.041 16.4433C21.5918 15.3652 22.0019 14.5098 22.2715 13.877C22.5644 13.1856 22.7754 12.6231 22.9043 12.1895C23.0449 11.7559 23.1152 11.3574 23.1152 10.9941C23.1152 10.291 23.0273 9.57031 22.8516 8.83203C22.6758 8.09375 22.5879 7.49023 22.5879 7.02148C22.5879 6.50586 22.7812 6.04297 23.168 5.63281C23.5547 5.21094 24.0527 5 24.6621 5C25.2832 5 25.7754 5.17578 26.1387 5.52734C26.5019 5.87891 26.6836 6.38867 26.6836 7.05664C26.6836 7.79492 26.5019 8.58594 26.1387 9.42969C25.7871 10.2734 25.3769 11.1582 24.9082 12.084C24.2051 13.4785 23.3789 15.0312 22.4297 16.7421C21.4922 18.4531 20.707 20.164 20.0742 21.875C20.1914 22.9179 20.3086 23.8613 20.4258 24.705C20.543 25.5488 20.6016 26.2343 20.6016 26.7617Z" fill="#778BFF"/>
</svg>
