<svg width="36" height="36" viewBox="0 0 36 36" fill="none" xmlns="http://www.w3.org/2000/svg">
<path d="M23.7285 14.0078C24.4668 14.6758 25.0234 15.4844 25.3984 16.4336C25.7852 17.3711 25.9785 18.4082 25.9785 19.5449C25.9785 22.041 25.1934 24.1445 23.6231 25.8555C22.0645 27.5664 20.0781 28.4219 17.6641 28.4219C16.6445 28.4219 15.7832 28.2988 15.0801 28.0527C14.3887 27.8066 13.8379 27.5371 13.4277 27.2441H13.2871V35.8047H10V10.3516C10 8.59375 10.1289 7.19922 10.3867 6.16797C10.6562 5.13672 11.2832 4.09961 12.2676 3.05664C12.9121 2.36523 13.7266 1.80859 14.7109 1.38672C15.6953 0.964844 16.8027 0.753906 18.0332 0.753906C18.9473 0.753906 19.8145 0.865234 20.6348 1.08789C21.4551 1.31055 22.1875 1.66211 22.832 2.14258C23.4766 2.61133 23.9805 3.20312 24.3438 3.91797C24.707 4.62109 24.8887 5.48242 24.8887 6.50195C24.8887 7.43945 24.7129 8.25391 24.3613 8.94531C24.0098 9.63672 23.582 10.1934 23.0781 10.6152C22.5859 11.0488 22.0293 11.3945 21.4082 11.6523C20.7871 11.9102 20.2246 12.0684 19.7207 12.127L19.791 12.2852C20.3301 12.3203 20.9688 12.4844 21.707 12.7773C22.457 13.0586 23.1309 13.4688 23.7285 14.0078ZM22.3047 19.6152C22.3047 18.7949 22.2344 17.9688 22.0938 17.1367C21.9648 16.3047 21.7363 15.6133 21.4082 15.0625C21.0566 14.4883 20.5762 14.0371 19.9668 13.709C19.3691 13.3809 18.5957 13.2168 17.6465 13.2168H15.9941V11.5469H17.1895C17.7051 11.5469 18.2383 11.459 18.7891 11.2832C19.3516 11.0957 19.832 10.8145 20.2305 10.4395C20.6875 10.0176 21.0449 9.51953 21.3027 8.94531C21.5605 8.37109 21.6895 7.59766 21.6895 6.625C21.6895 5.17188 21.3379 4.05273 20.6348 3.26758C19.9316 2.48242 19.0117 2.08984 17.875 2.08984C17.1953 2.08984 16.5918 2.20117 16.0645 2.42383C15.5488 2.64648 15.0684 3.05664 14.623 3.6543C14.2129 4.20508 13.8848 4.9668 13.6387 5.93945C13.4043 6.91211 13.2871 8.06055 13.2871 9.38477V24.3262C13.5332 25.0762 14.0312 25.7324 14.7812 26.2949C15.5312 26.8574 16.3926 27.1387 17.3652 27.1387C18.8652 27.1387 20.0605 26.4707 20.9512 25.1348C21.8535 23.7871 22.3047 21.9473 22.3047 19.6152Z" fill="#778BFF"/>
</svg>
