<svg width="36" height="36" viewBox="0 0 36 36" fill="none" xmlns="http://www.w3.org/2000/svg">
<path d="M28.3379 26.4726C27.7402 26.6836 27.1133 26.8535 26.457 26.9824C25.8008 27.1113 25.2852 27.1757 24.9102 27.1757C23.9258 27.1757 23.1817 26.8945 22.6777 26.332C22.1738 25.7578 21.8223 24.7382 21.6231 23.2734C21.3184 23.7773 20.9434 24.2988 20.4981 24.8378C20.0645 25.3652 19.6074 25.7929 19.127 26.1211C18.5762 26.5078 18.0195 26.8007 17.457 27C16.8945 27.2109 16.2148 27.3164 15.418 27.3164C14.4453 27.3164 13.5078 27.0996 12.6055 26.666C11.7148 26.2324 10.9238 25.6113 10.2324 24.8027C9.54102 23.9941 8.9961 23.0214 8.59766 21.8847C8.19922 20.748 8 19.4941 8 18.1231C8 16.8691 8.21094 15.6797 8.63281 14.5547C9.05469 13.4297 9.64649 12.4395 10.4082 11.584C11.1348 10.7754 11.9961 10.1426 12.9922 9.68555C14 9.22852 15.043 9 16.1211 9C17.5156 9 18.6992 9.33984 19.6719 10.0195C20.6445 10.6875 21.3594 11.625 21.8164 12.832L22.2559 9.47461H25.5254C25.4434 10.3066 25.2617 11.5488 24.9805 13.2012C24.711 14.8535 24.3945 16.6582 24.0313 18.6152C24.0664 20.3378 24.2598 21.7793 24.6113 22.9394C24.9746 24.0878 25.4375 24.8261 26 25.1543C26.1758 25.2597 26.5098 25.3183 27.002 25.33C27.4942 25.3418 27.9395 25.3476 28.3379 25.3476V26.4726ZM21.2891 17.6133C21.207 16.7578 21.0723 15.8906 20.8848 15.0117C20.6973 14.1328 20.416 13.3535 20.041 12.6738C19.6777 11.9824 19.2031 11.4258 18.6172 11.0039C18.043 10.5703 17.3281 10.3535 16.4727 10.3535C15.0898 10.3535 13.9414 11.0625 13.0273 12.4805C12.125 13.8984 11.6738 15.8496 11.6738 18.334C11.6738 19.2832 11.7734 20.1855 11.9727 21.041C12.1719 21.8847 12.4531 22.6171 12.8164 23.2382C13.2031 23.8945 13.707 24.4277 14.3281 24.8378C14.9609 25.2363 15.7109 25.4355 16.5781 25.4355C18.0078 25.4355 19.1211 24.7968 19.918 23.5195C20.7149 22.2304 21.1719 20.2617 21.2891 17.6133Z" fill="#778BFF"/>
</svg>
