<svg width="293" height="293" viewBox="0 0 293 293" fill="none" xmlns="http://www.w3.org/2000/svg">
<g clip-path="url(#clip0_3038_2)">
<path d="M200.673 6.4351C223.301 -10.8935 255.276 9.28026 249.378 37.1647L233.208 113.614C231.354 122.38 233.421 131.52 238.869 138.634L286.378 200.673C303.707 223.302 283.533 255.277 255.649 249.378L179.2 233.207C170.433 231.353 161.293 233.421 154.18 238.87L92.1399 286.379C69.5114 303.707 37.5372 283.533 43.4353 255.649L59.6058 179.199C61.4602 170.433 59.392 161.294 53.944 154.179L6.4351 92.1399C-10.8935 69.5114 9.28025 37.5372 37.1647 43.4352L113.614 59.6058C122.381 61.4602 131.52 59.392 138.634 53.944L200.673 6.4351Z" fill="#FF762A"/>
</g>
<defs>
<clipPath id="clip0_3038_2">
<rect width="293" height="293" fill="white"/>
</clipPath>
</defs>
</svg>
